<svg xmlns="http://www.w3.org/2000/svg" xmlns:xlink="http://www.w3.org/1999/xlink" xmlns:lucid="lucid" width="1982" height="1582"><g transform="translate(401 -499)" lucid:page-tab-id="0_0"><path d="M-4000-1500h7000V9000h-7000z" fill="#fff"/><path d="M-400 512a12 12 0 0 1 12-12h1956a12 12 0 0 1 12 12v29.9H-400z" stroke="#000" stroke-width="2" fill="#fff"/><path d="M-400 583.78v-41.9h860v41.9M460 583.78v-41.9h1120v41.9" stroke="#000" stroke-width="2" fill="#fff"/><path d="M-400 583.78h860V2080h-848a12 12 0 0 1-12-12zM460 583.78h1120V2068a12 12 0 0 1-12 12H460z" stroke="#000" stroke-width="2" fill="none"/><use xlink:href="#a" transform="matrix(1,0,0,1,-400,500) translate(872.6822916666666 29.08376736111111)"/><use xlink:href="#b" transform="matrix(1,0,0,1,-400,500) translate(1003.8237847222222 29.08376736111111)"/><use xlink:href="#c" transform="matrix(1,0,0,1,-400,500) translate(1049.2881944444443 29.08376736111111)"/><use xlink:href="#d" transform="matrix(1,0,0,1,-400,541.8880208333334) translate(396.7154947916667 29.08376736111111)"/><use xlink:href="#e" transform="matrix(1,0,0,1,460,541.8880208333334) translate(525.3483072916666 29.08376736111111)"/><path d="M-240.4 620c0 11.05-8.95 20-20 20-11.04 0-20-8.95-20-20s8.96-20 20-20c11.05 0 20 8.95 20 20z" stroke="#000" stroke-width="2"/><path d="M-260.4 641.5v28.3a.2.2 0 0 0 .2.2.2.2 0 0 1 .2.2v12.42" stroke="#3a414a" fill="none"/><path d="M-260.44 641l.52-.02v.53h-.95v-.55z" stroke="#3a414a" stroke-width=".05" fill="#3a414a"/><path d="M-260 697.38l-4.63-14.26h9.26z" stroke="#3a414a" fill="#3a414a"/><path d="M-180 700c22.1 0 40 17.9 40 40s-17.9 40-40 40h-160c-22.1 0-40-17.9-40-40s17.9-40 40-40z" stroke="#000" stroke-width="2" fill="#fff"/><use xlink:href="#f" transform="matrix(1,0,0,1,-375,705) translate(6.650390625 43.40277777777778)"/><use xlink:href="#g" transform="matrix(1,0,0,1,-375,705) translate(64.78841145833334 43.40277777777778)"/><use xlink:href="#h" transform="matrix(1,0,0,1,-375,705) translate(117.43598090277777 43.40277777777778)"/><use xlink:href="#i" transform="matrix(1,0,0,1,-375,705) translate(204.83832465277777 43.40277777777778)"/><path d="M-260 781.5v52.78" stroke="#3a414a" fill="none"/><path d="M-259.52 781.5h-.96v-.5h.96z" stroke="#3a414a" stroke-width=".05" fill="#3a414a"/><path d="M-260 849.04l-4.63-14.26h9.26z" stroke="#3a414a" fill="#3a414a"/><path d="M-265.14 853.1a10 10 0 0 1 10.28 0l89.72 53.8a3.6 3.6 0 0 1 0 6.2l-89.72 53.8a10 10 0 0 1-10.28 0l-89.72-53.8a3.6 3.6 0 0 1 0-6.2z" stroke="#000" stroke-width="2" fill="#fff"/><use xlink:href="#j" transform="matrix(1,0,0,1,-355,855) translate(55.29688368055555 45.59027777777778)"/><use xlink:href="#k" transform="matrix(1,0,0,1,-355,855) translate(107.944453125 45.59027777777778)"/><use xlink:href="#l" transform="matrix(1,0,0,1,-355,855) translate(46.31250868055556 77.85590277777777)"/><use xlink:href="#m" transform="matrix(1,0,0,1,-355,855) translate(74.2747482638889 77.85590277777777)"/><path d="M-91.22 904.02l-.08 1-.24.98-.4.94-.52.87-.66.78-.77.66-.86.53-.93.4-.98.23-1 .08h-64.2v-.96h64.16l.9-.06.83-.2.8-.34.75-.45.66-.56.57-.65.45-.74.34-.8.2-.84.07-.88v-41.23h.95zm53.84-190.64h-48.3l-.88.07-.84.2-.8.34-.74.44-.66.56-.57.66-.45.74-.33.8-.2.84-.07.9v122.3h-.95V718.9l.08-1 .24-1 .4-.93.52-.87.66-.77.78-.66.86-.53.94-.4 1-.23.98-.07h48.34z" stroke="#3a414a" stroke-width=".05" fill="#3a414a"/><path d="M-161.88 910.48h-.56l.05-.48-.04-.48h.56z" fill="#3a414a"/><path stroke="#3a414a" stroke-width=".05" fill="#3a414a"/><path d="M-22.62 712.9l-14.26 4.64v-9.27z" fill="#3a414a"/><path d="M-21.08 712.9l-16.28 5.3v-10.58zm-15.33 4l12.24-4-12.25-3.97z" stroke="#3a414a" stroke-width=".05" fill="#3a414a"/><use xlink:href="#n" transform="matrix(1,0,0,1,-124.31789749792853,841.2447916666666) translate(0 17.22222222222222)"/><use xlink:href="#o" transform="matrix(1,0,0,1,-124.31789749792853,841.2447916666666) translate(42.96875 17.22222222222222)"/><path d="M159.65 672.55c22.28 0 40.35 18.07 40.35 40.36 0 22.3-18.07 40.36-40.35 40.36H20.34C-1.93 753.26-20 735.2-20 712.9c0-22.28 18.07-40.35 40.36-40.35z" stroke="#000" stroke-width="2" fill="#fff"/><use xlink:href="#p" transform="matrix(1,0,0,1,-15,677.5537147983956) translate(11.699878472222219 28.18402777777778)"/><use xlink:href="#q" transform="matrix(1,0,0,1,-15,677.5537147983956) translate(72.7024826388889 28.18402777777778)"/><use xlink:href="#r" transform="matrix(1,0,0,1,-15,677.5537147983956) translate(44.468975694444445 60.44965277777778)"/><path d="M-83.93 993.7l1 .07.98.24.94.4.86.53.77.66.66.76.52.87.4.94.22 1 .08.98v2.47h-.95v-2.43l-.07-.9-.2-.84-.33-.8-.45-.74-.57-.66-.66-.56-.74-.45-.8-.33-.85-.2-.87-.08h-60.97v-.94zm-175.53-4.67l.2.85.34.8.45.74.56.66.65.56.74.45.8.32.84.2.88.08H-193v.94h-61.02l-1-.07-.98-.24-.94-.4-.87-.52-.78-.65-.66-.77-.53-.87-.4-.93-.23-1-.08-.98v-18.36h.96v18.3z" stroke="#3a414a" stroke-width=".05" fill="#3a414a"/><path d="M-260 969.34l.48-.03v.55h-.96v-.54z" fill="#3a414a"/><path stroke="#3a414a" stroke-width=".05" fill="#3a414a"/><path d="M-77.95 1017.38l-4.64-14.26h9.28z" fill="#3a414a"/><path d="M-77.95 1018.92l-5.3-16.28h10.6zm-3.98-15.33l3.98 12.25 3.98-12.26z" stroke="#3a414a" stroke-width=".05" fill="#3a414a"/><use xlink:href="#s" transform="matrix(1,0,0,1,-193.012274218356,983.4145636338113) translate(0 17.22222222222222)"/><path d="M-31.93 1020c19.9 0 36.03 16.13 36.03 36.02 0 19.9-16.13 36.03-36.03 36.03h-92.05c-19.9 0-36.02-16.13-36.02-36.03 0-19.9 16.13-36.02 36.02-36.02z" stroke="#000" stroke-width="2" fill="#fff"/><use xlink:href="#p" transform="matrix(1,0,0,1,-154.99999999999972,1025) translate(21.56424479166666 25.46527777777778)"/><use xlink:href="#t" transform="matrix(1,0,0,1,-154.99999999999972,1025) translate(82.56684895833334 25.46527777777778)"/><use xlink:href="#u" transform="matrix(1,0,0,1,-154.99999999999972,1025) translate(19.263897569444445 57.73090277777778)"/><path d="M201.5 712.9h81.12" stroke="#3a414a" fill="none"/><path d="M201.5 713.38h-.53l.03-.46-.02-.5h.53z" stroke="#3a414a" stroke-width=".05" fill="#3a414a"/><path d="M297.38 712.9l-14.26 4.64v-9.27z" stroke="#3a414a" fill="#3a414a"/><path d="M384.82 677.73c19.43 0 35.18 15.75 35.18 35.18 0 19.44-15.75 35.2-35.18 35.2h-49.64c-19.43 0-35.18-15.76-35.18-35.2 0-19.42 15.75-35.17 35.18-35.17z" stroke="#000" stroke-width="2" fill="#fff"/><use xlink:href="#v" transform="matrix(1,0,0,1,305,682.7311236525622) translate(18.42230902777778 36.77777777777778)"/><path d="M-161.5 1056.02h-52.9a6 6 0 0 0-6 6v100.6" stroke="#3a414a" fill="none"/><path d="M-161 1056v.5h-.5v-.95h.53z" stroke="#3a414a" stroke-width=".05" fill="#3a414a"/><path d="M-220.4 1177.38l-4.63-14.26h9.27z" stroke="#3a414a" fill="#3a414a"/><path d="M-195.57 1180c19.42 0 35.17 15.75 35.17 35.18 0 19.42-15.75 35.17-35.17 35.17h-49.65c-19.43 0-35.18-15.74-35.18-35.17s15.75-35.18 35.18-35.18z" stroke="#000" stroke-width="2" fill="#fff"/><use xlink:href="#v" transform="matrix(1,0,0,1,-275.3965844164959,1184.9999999999998) translate(18.42230902777778 36.77777777777778)"/><path d="M421.5 712.9h54a.18.18 0 0 1 .17.2.18.18 0 0 0 .18.16h38.1" stroke="#3a414a" fill="none"/><path d="M421.5 713.38h-.53l.03-.44v-.5h.5z" stroke="#3a414a" stroke-width=".05" fill="#3a414a"/><path d="M528.72 713.26l-14.26 4.64v-9.27z" stroke="#3a414a" fill="#3a414a"/><path d="M614.47 630.7a6.23 6.23 0 0 1 8.64 0l81.37 78.4a5.78 5.78 0 0 1 0 8.33l-81.36 78.4a6.23 6.23 0 0 1-8.63 0l-81.36-78.4a5.78 5.78 0 0 1 0-8.33z" stroke="#000" stroke-width="2" fill="#fff"/><use xlink:href="#w" transform="matrix(1,0,0,1,533.7931555950654,631.526700430125) translate(22.696180555555557 73.95095486111111)"/><use xlink:href="#x" transform="matrix(1,0,0,1,533.7931555950654,631.526700430125) translate(27.665798611111114 106.21657986111111)"/><use xlink:href="#y" transform="matrix(1,0,0,1,533.7931555950654,631.526700430125) translate(81.88671875 106.21657986111111)"/><path d="M757.9 713.74h-50.15v-.95h50.15zm65.87 0H789.5v-.95h34.27z" stroke="#3a414a" stroke-width=".05" fill="#3a414a"/><path d="M707.76 713.74h-.55l.05-.48-.04-.47h.56z" fill="#3a414a"/><path stroke="#3a414a" stroke-width=".05" fill="#3a414a"/><path d="M838.53 713.26l-14.26 4.64v-9.27z" fill="#3a414a"/><path d="M840.07 713.26l-16.28 5.3v-10.6zm-15.33 4l12.25-4-12.26-3.98z" stroke="#3a414a" stroke-width=".05" fill="#3a414a"/><use xlink:href="#z" transform="matrix(1,0,0,1,757.8992771351782,702.5081418817291) translate(0 17.22222222222222)"/><path d="M619.27 853.9h-.95v-8.7h.95zm0-30.22h-.95v-24.6h.95z" stroke="#3a414a" stroke-width=".05" fill="#3a414a"/><path d="M618.8 798.58l.47-.03v.55h-.95v-.55z" fill="#3a414a"/><path stroke="#3a414a" stroke-width=".05" fill="#3a414a"/><path d="M618.8 868.67l-4.64-14.27h9.27z" fill="#3a414a"/><path d="M618.8 870.2l-5.3-16.27h10.58zm-4-15.32l4 12.25 3.98-12.25z" stroke="#3a414a" stroke-width=".05" fill="#3a414a"/><use xlink:href="#A" transform="matrix(1,0,0,1,606.5665930950654,823.679342415946) translate(0 17.22222222222222)"/><path d="M675.08 871.3c21.38 0 38.7 17.32 38.7 38.7 0 21.38-17.32 38.7-38.7 38.7H562.5c-21.37 0-38.7-17.32-38.7-38.7 0-21.38 17.33-38.7 38.7-38.7z" stroke="#000" stroke-width="2" fill="#fff"/><use xlink:href="#B" transform="matrix(1,0,0,1,528.7931555950654,876.2868186627146) translate(22.29124131944443 25.77777777777778)"/><use xlink:href="#C" transform="matrix(1,0,0,1,528.7931555950654,876.2868186627146) translate(106.48177951388888 25.77777777777778)"/><use xlink:href="#D" transform="matrix(1,0,0,1,528.7931555950654,876.2868186627146) translate(42.12631076388888 58.04340277777778)"/><path d="M522.3 910H96a6 6 0 0 1-6-6V770.65" stroke="#3a414a" fill="none"/><path d="M522.8 909.97v.5h-.52v-.95h.54z" stroke="#3a414a" stroke-width=".05" fill="#3a414a"/><path d="M90 755.88l4.64 14.27h-9.28z" stroke="#3a414a" fill="#3a414a"/><path d="M-220.4 1251.86v157.48a6 6 0 0 0 6 6h733.12" stroke="#3a414a" fill="none"/><path d="M-219.92 1251.87h-.95v-.5h.95z" stroke="#3a414a" stroke-width=".05" fill="#3a414a"/><path d="M533.48 1415.34l-14.26 4.64v-9.27z" stroke="#3a414a" fill="#3a414a"/><path d="M614.3 1343.97a6.8 6.8 0 0 1 9 0l76.4 67.4a5.3 5.3 0 0 1 0 7.94l-76.4 67.4a6.8 6.8 0 0 1-9 0l-76.4-67.4a5.3 5.3 0 0 1 0-7.93z" stroke="#000" stroke-width="2" fill="#fff"/><use xlink:href="#E" transform="matrix(1,0,0,1,538.3960255668256,1344.9999999999995) translate(20.50608506944445 69.53777777777778)"/><use xlink:href="#F" transform="matrix(1,0,0,1,538.3960255668256,1344.9999999999995) translate(49.78125868055556 101.80340277777776)"/><path d="M778.1 1409.36l-.06 1-.24.98-.4.94-.52.87-.66.77-.77.66-.87.53-.94.4-1 .24-.98.08H703v-.95h68.62l.88-.07.85-.2.8-.34.74-.45.64-.55.57-.66.46-.75.33-.8.2-.84.06-.88v-70.9h.95zm58.3-168.88h-52.74l-.88.06-.85.2-.8.34-.74.45-.67.56-.56.65-.45.74-.33.8-.22.84-.07.88v70.9h-.94v-70.94l.08-1 .24-.98.4-.94.52-.87.66-.78.77-.66.87-.53.94-.4 1-.23.98-.07h52.8z" stroke="#3a414a" stroke-width=".05" fill="#3a414a"/><path d="M703 1415.82h-.55l.04-.48-.05-.47h.55z" fill="#3a414a"/><path stroke="#3a414a" stroke-width=".05" fill="#3a414a"/><path d="M851.17 1240l-14.26 4.63v-9.27z" fill="#3a414a"/><path d="M852.7 1240l-16.27 5.3v-10.6zm-15.32 3.98l12.26-3.98-12.26-3.98z" stroke="#3a414a" stroke-width=".05" fill="#3a414a"/><use xlink:href="#z" transform="matrix(1,0,0,1,761.8406790948357,1316.9158915340272) translate(0 17.22222222222222)"/><path d="M619.27 1340.77h-.95v-33.7h.95zm0-55.2h-.95v-17.83h.95z" stroke="#3a414a" stroke-width=".05" fill="#3a414a"/><path d="M619.27 1341.3l-.48-.03-.48.03v-.55h.95z" fill="#3a414a"/><path stroke="#3a414a" stroke-width=".05" fill="#3a414a"/><path d="M623.43 1267.24h-9.27l4.63-14.27z" fill="#3a414a"/><path d="M624.08 1267.7H613.5l5.3-16.26zm-9.27-.94h7.98l-4-12.25z" stroke="#3a414a" stroke-width=".05" fill="#3a414a"/><use xlink:href="#A" transform="matrix(1,0,0,1,606.5665930950654,1285.5551251070697) translate(0 17.22222222222222)"/><path d="M522.3 1211.64H-71.96a6 6 0 0 1-6-6v-96.2" stroke="#3a414a" fill="none"/><path d="M522.8 1211.62v.5h-.52v-.95h.54z" stroke="#3a414a" stroke-width=".05" fill="#3a414a"/><path d="M-77.95 1094.67l4.63 14.26h-9.27z" stroke="#3a414a" fill="#3a414a"/><path d="M675.08 1172.93c21.38 0 38.7 17.33 38.7 38.7 0 21.4-17.32 38.72-38.7 38.72H562.5c-21.37 0-38.7-17.33-38.7-38.7 0-21.4 17.33-38.72 38.7-38.72z" stroke="#000" stroke-width="2" fill="#fff"/><use xlink:href="#B" transform="matrix(1,0,0,1,528.7931555950654,1177.9284550337627) translate(22.29124131944443 25.77777777777778)"/><use xlink:href="#C" transform="matrix(1,0,0,1,528.7931555950654,1177.9284550337627) translate(106.48177951388888 25.77777777777778)"/><use xlink:href="#D" transform="matrix(1,0,0,1,528.7931555950654,1177.9284550337627) translate(42.12631076388888 58.04340277777778)"/><path d="M1271.3 1760c21.37 0 38.7 17.33 38.7 38.7 0 21.4-17.33 38.73-38.7 38.73h-112.6c-21.37 0-38.7-17.34-38.7-38.72 0-21.37 17.33-38.7 38.7-38.7z" stroke="#000" stroke-width="2" fill="#fff"/><use xlink:href="#G" transform="matrix(1,0,0,1,1125,1764.9999999999998) translate(28.59549479166666 25.77777777777778)"/><use xlink:href="#H" transform="matrix(1,0,0,1,1125,1764.9999999999998) translate(105.37500868055555 25.77777777777778)"/><use xlink:href="#I" transform="matrix(1,0,0,1,1125,1764.9999999999998) translate(50.096145833333324 58.04340277777778)"/><path d="M1384.42 1011.47c19.52 0 35.35 15.83 35.35 35.36 0 19.52-15.83 35.35-35.35 35.35h-131.25c-19.53 0-35.36-15.83-35.36-35.35.02-19.53 15.84-35.36 35.37-35.36z" stroke="#000" stroke-width="2" fill="#fff"/><use xlink:href="#J" transform="matrix(1,0,0,1,1222.8147557939026,1016.4732995698749) translate(49.374140625 25.34027777777778)"/><use xlink:href="#K" transform="matrix(1,0,0,1,1222.8147557939026,1016.4732995698749) translate(109.41103298611111 25.34027777777778)"/><use xlink:href="#L" transform="matrix(1,0,0,1,1222.8147557939026,1016.4732995698749) translate(17.12587673611112 57.60590277777778)"/><use xlink:href="#M" transform="matrix(1,0,0,1,1222.8147557939026,1016.4732995698749) translate(117.63585937500001 57.60590277777778)"/><path d="M924.7 620.92a5.58 5.58 0 0 1 8.18 0l81.83 87.95a6.45 6.45 0 0 1 0 8.8L932.9 805.6a5.58 5.58 0 0 1-8.17 0l-81.82-87.94a6.45 6.45 0 0 1 0-8.8z" stroke="#000" stroke-width="2" fill="#fff"/><use xlink:href="#N" transform="matrix(1,0,0,1,843.7931555950659,621.526700430125) translate(56.38086805555556 56.02777777777778)"/><use xlink:href="#O" transform="matrix(1,0,0,1,843.7931555950659,621.526700430125) translate(45.166675347222224 88.29340277777777)"/><use xlink:href="#P" transform="matrix(1,0,0,1,843.7931555950659,621.526700430125) translate(26.411250000000006 120.55902777777777)"/><path d="M1046.37 713.74h-28.43v-.95h28.43zm37 0h-12.55v-.95h12.55z" stroke="#3a414a" stroke-width=".05" fill="#3a414a"/><path d="M1017.95 713.74h-.55l.04-.48-.04-.47h.55z" fill="#3a414a"/><path stroke="#3a414a" stroke-width=".05" fill="#3a414a"/><path d="M1098.13 713.26l-14.27 4.64v-9.27z" fill="#3a414a"/><path d="M1099.67 713.26l-16.28 5.3v-10.6zm-15.33 4l12.25-4-12.26-3.98z" stroke="#3a414a" stroke-width=".05" fill="#3a414a"/><use xlink:href="#A" transform="matrix(1,0,0,1,1046.3663412562828,702.5081418817291) translate(0 17.22222222222222)"/><path d="M1240.75 673.26c22.1 0 40 17.9 40 40s-17.9 40-40 40h-100c-22.1 0-40-17.9-40-40s17.9-40 40-40z" stroke="#000" stroke-width="2" fill="#fff"/><use xlink:href="#G" transform="matrix(1,0,0,1,1105.7499551973933,678.2633502150625) translate(23.59549479166666 28.18402777777778)"/><use xlink:href="#H" transform="matrix(1,0,0,1,1105.7499551973933,678.2633502150625) translate(100.37500868055555 28.18402777777778)"/><use xlink:href="#Q" transform="matrix(1,0,0,1,1105.7499551973933,678.2633502150625) translate(42.01997395833333 60.44965277777778)"/><path d="M1190.75 754.76v26.6a6 6 0 0 0 6 6h116.04a6 6 0 0 1 6 6v10.73" stroke="#3a414a" fill="none"/><path d="M1191.22 754.78h-.94v-.52h.94z" stroke="#3a414a" stroke-width=".05" fill="#3a414a"/><path d="M1318.8 818.86l-4.64-14.27h9.27z" stroke="#3a414a" fill="#3a414a"/><path d="M934.27 987.93h-.95V917.1h.95zm-5-92.33h-.95v-86.7h.95z" stroke="#3a414a" stroke-width=".05" fill="#3a414a"/><path d="M928.8 808.4l.47-.05v.55h-.95v-.55z" fill="#3a414a"/><path stroke="#3a414a" stroke-width=".05" fill="#3a414a"/><path d="M933.8 1002.7l-4.64-14.27h9.27z" fill="#3a414a"/><path d="M933.8 1004.23l-5.3-16.27h10.58zm-4-15.32l4 12.26 3.98-12.25z" stroke="#3a414a" stroke-width=".05" fill="#3a414a"/><use xlink:href="#z" transform="matrix(1,0,0,1,915.4945444839548,895.5972464183404) translate(0 17.22222222222222)"/><path d="M978.08 1005.32c28 0 50.7 22.7 50.7 50.7 0 28-22.7 50.7-50.7 50.7H889.5c-28 0-50.7-22.7-50.7-50.7 0-28 22.7-50.7 50.7-50.7z" stroke="#000" stroke-width="2" fill="#fff"/><use xlink:href="#R" transform="matrix(1,0,0,1,843.7931555950659,1010.3145486983107) translate(51.03473090277778 24.40277777777778)"/><use xlink:href="#S" transform="matrix(1,0,0,1,843.7931555950659,1010.3145486983107) translate(12.445529513888886 56.66840277777778)"/><use xlink:href="#T" transform="matrix(1,0,0,1,843.7931555950659,1010.3145486983107) translate(64.38651041666665 88.93402777777777)"/><path d="M1248.8 831.97v33a6 6 0 0 1-6 6h-69.96a6 6 0 0 0-6 6v17.12" stroke="#3a414a" fill="none"/><path stroke="#3a414a" stroke-width=".05" fill="#3a414a"/><path d="M1166.84 908.86l-4.64-14.27h9.27z" stroke="#3a414a" fill="#3a414a"/><path d="M1239.53 911.47c19.52 0 35.35 15.83 35.35 35.36 0 19.52-15.83 35.35-35.35 35.35h-145.38c-19.53 0-35.36-15.83-35.36-35.35 0-19.53 15.82-35.36 35.35-35.36z" stroke="#000" stroke-width="2" fill="#fff"/><use xlink:href="#B" transform="matrix(1,0,0,1,1063.7931555950656,916.4732995698749) translate(17.653437500000003 25.34027777777778)"/><use xlink:href="#U" transform="matrix(1,0,0,1,1063.7931555950656,916.4732995698749) translate(101.84397569444445 25.34027777777778)"/><use xlink:href="#D" transform="matrix(1,0,0,1,1063.7931555950656,916.4732995698749) translate(55.12631076388888 57.60590277777778)"/><path d="M522.3 1056.02H21.47" stroke="#3a414a" fill="none"/><path d="M522.8 1056v.5h-.52v-.95h.54z" stroke="#3a414a" stroke-width=".05" fill="#3a414a"/><path d="M6.72 1056.02l14.26-4.63v9.26z" stroke="#3a414a" fill="#3a414a"/><path d="M1499.17 907.2c21.88 0 39.62 17.74 39.62 39.63 0 21.88-17.75 39.62-39.63 39.62h-80.76c-21.87 0-39.6-17.74-39.6-39.62 0-21.9 17.73-39.62 39.6-39.62z" stroke="#000" stroke-width="2" fill="#fff"/><use xlink:href="#V" transform="matrix(1,0,0,1,1383.7931555950659,912.2055402032398) translate(22.661250000000003 25.90277777777778)"/><use xlink:href="#H" transform="matrix(1,0,0,1,1383.7931555950659,912.2055402032398) translate(81.30925347222222 25.90277777777778)"/><use xlink:href="#Q" transform="matrix(1,0,0,1,1383.7931555950659,912.2055402032398) translate(32.01997395833333 58.16840277777778)"/><path d="M1318.8 832.97V994.1" stroke="#3a414a" fill="none"/><path d="M1319.27 833h-.95v-.53h.95z" stroke="#3a414a" stroke-width=".05" fill="#3a414a"/><path d="M1318.8 1008.86l-4.64-14.27h9.27z" stroke="#3a414a" fill="#3a414a"/><path d="M1178.8 826.47a5 5 0 0 1 5-5h270a5 5 0 0 1 5 5 5 5 0 0 1-5 5h-270a5 5 0 0 1-5-5z" stroke="#000" stroke-width="2"/><path d="M1388.8 831.97v30.87a6 6 0 0 0 6 6h58a6 6 0 0 1 6 6v14.98" stroke="#3a414a" fill="none"/><path stroke="#3a414a" stroke-width=".05" fill="#3a414a"/><path d="M1458.8 904.6l-4.64-14.28h9.27z" stroke="#3a414a" fill="#3a414a"/><path d="M1178.8 1154.22a5 5 0 0 1 5-5h270a5 5 0 0 1 5 5 5 5 0 0 1-5 5h-270a5 5 0 0 1-5-5z" stroke="#000" stroke-width="2"/><path d="M1318.8 1083.68v48.15" stroke="#3a414a" fill="none"/><path d="M1319.27 1083.7h-.95v-.52h.95z" stroke="#3a414a" stroke-width=".05" fill="#3a414a"/><path d="M1318.8 1146.6l-4.64-14.27h9.27z" stroke="#3a414a" fill="#3a414a"/><path d="M1458.8 987.95v115.27a6 6 0 0 1-6 6h-58a6 6 0 0 0-6 6v17.6" stroke="#3a414a" fill="none"/><path d="M1459.27 987.96h-.95v-.5h.95z" stroke="#3a414a" stroke-width=".05" fill="#3a414a"/><path d="M1388.8 1147.6l-4.64-14.27h9.27z" stroke="#3a414a" fill="#3a414a"/><path d="M1166.84 983.68v119.54a6 6 0 0 0 6 6h69.95a6 6 0 0 1 6 6v17.6" stroke="#3a414a" fill="none"/><path d="M1167.3 983.7h-.94v-.52h.95z" stroke="#3a414a" stroke-width=".05" fill="#3a414a"/><path d="M1248.8 1147.6l-4.64-14.27h9.27z" stroke="#3a414a" fill="#3a414a"/><path d="M837.3 1056.02H731.17" stroke="#3a414a" fill="none"/><path d="M837.8 1056.02v.48h-.52v-.95h.54z" stroke="#3a414a" stroke-width=".05" fill="#3a414a"/><path d="M716.4 1056.02l14.28-4.63v9.26z" stroke="#3a414a" fill="#3a414a"/><path d="M677.77 1020c19.9 0 36.02 16.13 36.02 36.02 0 19.9-16.13 36.03-36.03 36.03H559.82c-19.9 0-36.03-16.13-36.03-36.03 0-19.9 16.12-36.02 36.02-36.02z" stroke="#000" stroke-width="2" fill="#fff"/><use xlink:href="#W" transform="matrix(1,0,0,1,528.7931555950654,1024.9999999999995) translate(33.88607638888889 25.46527777777778)"/><use xlink:href="#X" transform="matrix(1,0,0,1,528.7931555950654,1024.9999999999995) translate(126.71376736111111 25.46527777777778)"/><use xlink:href="#Y" transform="matrix(1,0,0,1,528.7931555950654,1024.9999999999995) translate(34.601354166666674 52.353298611111114)"/><use xlink:href="#Z" transform="matrix(1,0,0,1,528.7931555950654,1024.9999999999995) translate(91.73026041666667 52.353298611111114)"/><path d="M1318.8 1160.72v33.16a6 6 0 0 1-6 6h-253a6 6 0 0 1-6-6V1165a6 6 0 0 0-6-6h-108a6 6 0 0 0-6 6v17.62" stroke="#3a414a" fill="none"/><path d="M1319.27 1160.73h-.95v-.5h.95z" stroke="#3a414a" stroke-width=".05" fill="#3a414a"/><path d="M933.8 1197.38l-4.64-14.26h9.27z" stroke="#3a414a" fill="#3a414a"/><path d="M1215 1838.93v24.7" stroke="#3a414a" fill="none"/><path d="M1215.47 1838.94h-.94v-.5h.94z" stroke="#3a414a" stroke-width=".05" fill="#3a414a"/><path d="M1215 1878.38l-4.63-14.26h9.27z" stroke="#3a414a" fill="#3a414a"/><path d="M1271.3 1881c21.37 0 38.7 17.33 38.7 38.7 0 21.4-17.33 38.73-38.7 38.73h-112.6c-21.37 0-38.7-17.34-38.7-38.72 0-21.37 17.33-38.7 38.7-38.7z" stroke="#000" stroke-width="2" fill="#fff"/><use xlink:href="#W" transform="matrix(1,0,0,1,1125,1885.9999999999998) translate(7.334852430555557 42.77777777777778)"/><use xlink:href="#aa" transform="matrix(1,0,0,1,1125,1885.9999999999998) translate(100.16254340277777 42.77777777777778)"/><use xlink:href="#ab" transform="matrix(1,0,0,1,1125,1885.9999999999998) translate(126.82269965277777 42.77777777777778)"/><path d="M1215 1959.93v46.26" stroke="#3a414a" fill="none"/><path d="M1215.47 1959.94h-.94v-.5h.94z" stroke="#3a414a" stroke-width=".05" fill="#3a414a"/><path d="M1215 2020.95l-4.63-14.26h9.27z" stroke="#3a414a" fill="#3a414a"/><path d="M1235 2043.57c0 11.05-8.95 20-20 20s-20-8.95-20-20c0-11.04 8.95-20 20-20s20 8.96 20 20z" stroke="#000" stroke-width="2" fill="#fff"/><path d="M1227 2043.57c0 6.63-5.37 12-12 12s-12-5.37-12-12c0-6.62 5.37-12 12-12s12 5.38 12 12z" stroke="#000" stroke-width="2"/><path d="M973.8 1200c22.1 0 40 17.9 40 40s-17.9 40-40 40h-80c-22.1 0-40-17.9-40-40s17.9-40 40-40z" stroke="#000" stroke-width="2" fill="#fff"/><use xlink:href="#ac" transform="matrix(1,0,0,1,858.7931555950659,1205) translate(1.2044270833333428 43.40277777777778)"/><use xlink:href="#ad" transform="matrix(1,0,0,1,858.7931555950659,1205) translate(103.9279513888889 43.40277777777778)"/><path d="M933.8 1281.5v41.12" stroke="#3a414a" fill="none"/><path d="M934.27 1281.5h-.95v-.5h.95z" stroke="#3a414a" stroke-width=".05" fill="#3a414a"/><path d="M933.8 1337.38l-4.64-14.26h9.27z" stroke="#3a414a" fill="#3a414a"/><path d="M973.8 1340c22.1 0 40 17.9 40 40s-17.9 40-40 40h-80c-22.1 0-40-17.9-40-40s17.9-40 40-40z" stroke="#000" stroke-width="2" fill="#fff"/><use xlink:href="#ae" transform="matrix(1,0,0,1,858.7931555950659,1345) translate(22.46636284722223 43.40277777777778)"/><use xlink:href="#ad" transform="matrix(1,0,0,1,858.7931555950659,1345) translate(82.666015625 43.40277777777778)"/><path d="M933.8 1421.5v61.12" stroke="#3a414a" fill="none"/><path d="M934.27 1421.5h-.95v-.5h.95z" stroke="#3a414a" stroke-width=".05" fill="#3a414a"/><path d="M933.8 1497.38l-4.64-14.26h9.27z" stroke="#3a414a" fill="#3a414a"/><path d="M973.8 1500c22.1 0 40 17.9 40 40s-17.9 40-40 40h-80c-22.1 0-40-17.9-40-40s17.9-40 40-40z" stroke="#000" stroke-width="2" fill="#fff"/><g><use xlink:href="#af" transform="matrix(1,0,0,1,858.7931555950659,1505) translate(11.056432291666662 28.09027777777778)"/><use xlink:href="#ag" transform="matrix(1,0,0,1,858.7931555950659,1505) translate(94.08594618055555 28.09027777777778)"/><use xlink:href="#ah" transform="matrix(1,0,0,1,858.7931555950659,1505) translate(6.965720486111119 54.978298611111114)"/><use xlink:href="#ai" transform="matrix(1,0,0,1,858.7931555950659,1505) translate(67.77301215277778 54.978298611111114)"/></g><path d="M852.3 1540H337.4" stroke="#3a414a" fill="none"/><path d="M852.8 1540v.47h-.52v-.94h.54z" stroke="#3a414a" stroke-width=".05" fill="#3a414a"/><path d="M322.62 1540l14.26-4.63v9.27z" stroke="#3a414a" fill="#3a414a"/><path d="M280 1500c22.1 0 40 17.9 40 40s-17.9 40-40 40h-80c-22.1 0-40-17.9-40-40s17.9-40 40-40z" stroke="#000" stroke-width="2" fill="#fff"/><g><use xlink:href="#aj" transform="matrix(1,0,0,1,165,1505) translate(22.010633680555564 43.40277777777778)"/><use xlink:href="#ad" transform="matrix(1,0,0,1,165,1505) translate(83.12174479166666 43.40277777777778)"/></g><path d="M240 1581.5v61.12" stroke="#3a414a" fill="none"/><path d="M240.47 1581.5h-.94v-.5h.94z" stroke="#3a414a" stroke-width=".05" fill="#3a414a"/><path d="M240 1657.38l-4.63-14.26h9.26z" stroke="#3a414a" fill="#3a414a"/><path d="M280 1660c22.1 0 40 17.9 40 40s-17.9 40-40 40h-80c-22.1 0-40-17.9-40-40s17.9-40 40-40z" stroke="#000" stroke-width="2" fill="#fff"/><g><use xlink:href="#ak" transform="matrix(1,0,0,1,165,1665) translate(12.879774305555564 43.40277777777778)"/><use xlink:href="#ad" transform="matrix(1,0,0,1,165,1665) translate(92.25260416666666 43.40277777777778)"/></g><path d="M321.5 1700h201.12" stroke="#3a414a" fill="none"/><path d="M321.5 1700.47h-.53l.03-.46-.02-.47h.53z" stroke="#3a414a" stroke-width=".05" fill="#3a414a"/><path d="M537.38 1700l-14.26 4.63v-9.27z" stroke="#3a414a" fill="#3a414a"/><path d="M660 1660c22.1 0 40 17.9 40 40s-17.9 40-40 40h-80c-22.1 0-40-17.9-40-40s17.9-40 40-40z" stroke="#000" stroke-width="2" fill="#fff"/><g><use xlink:href="#al" transform="matrix(1,0,0,1,545,1665) translate(18.457031250000007 43.40277777777778)"/><use xlink:href="#ad" transform="matrix(1,0,0,1,545,1665) translate(86.67534722222223 43.40277777777778)"/></g><path d="M701.5 1700h142.9" stroke="#3a414a" fill="none"/><path d="M701.5 1700.47h-.53l.03-.46-.02-.47h.53z" stroke="#3a414a" stroke-width=".05" fill="#3a414a"/><path d="M859.17 1700l-14.26 4.63v-9.27z" stroke="#3a414a" fill="#3a414a"/><path d="M934 1643.6a8 8 0 0 1 9.6 0l70.4 52.8a4.5 4.5 0 0 1 0 7.2l-70.4 52.8a8 8 0 0 1-9.6 0l-70.4-52.8a4.5 4.5 0 0 1 0-7.2z" stroke="#000" stroke-width="2" fill="#fff"/><g><use xlink:href="#am" transform="matrix(1,0,0,1,863.7931555950659,1645) translate(52.57118923611112 45.59027777777778)"/><use xlink:href="#an" transform="matrix(1,0,0,1,863.7931555950659,1645) translate(43.798402777777774 77.85590277777777)"/></g><path d="M1068.37 1792.7l.07.88.2.84.34.8.45.74.56.66.65.56.74.45.8.34.84.2.88.07h28.7v.95h-28.74l-1-.1-.98-.23-.94-.4-.87-.52-.78-.66-.66-.78-.53-.87-.4-.94-.23-.97-.08-1v-32.62h.95zm-5.46-93.1l1 .24.94.4.87.52.78.66.66.77.53.86.4.94.23 1 .07.98v32.62h-.95v-32.58l-.07-.88-.2-.85-.33-.8-.45-.75-.57-.66-.65-.57-.74-.45-.8-.33-.84-.2-.88-.08h-44.58v-.94h44.62z" stroke="#3a414a" stroke-width=".05" fill="#3a414a"/><path d="M1017.3 1700.47h-.55l.05-.47-.05-.47h.56z" fill="#3a414a"/><path stroke="#3a414a" stroke-width=".05" fill="#3a414a"/><path d="M1117.38 1798.7l-14.26 4.65v-9.27z" fill="#3a414a"/><path d="M1118.92 1798.7l-16.28 5.3v-10.58zm-15.33 4l12.25-4-12.26-3.97z" stroke="#3a414a" stroke-width=".05" fill="#3a414a"/><g><use xlink:href="#z" transform="matrix(1,0,0,1,1052.1000758385708,1738.6013823353094) translate(0 17.22222222222222)"/></g><path d="M1070.1 1609.74H944.8l-.87.07-.84.2-.8.35-.75.45-.66.56-.57.66-.46.74-.33.8-.2.84-.07.9v25.2h-.95v-25.25l.08-1 .23-.98.4-.94.52-.87.66-.77.8-.67.85-.53.94-.4.98-.23 1-.08h125.32zm121.13-6.45l-.08.98-.24 1-.38.93-.53.87-.67.78-.77.66-.87.54-.95.4-1 .22-.98.08h-90.2v-.95h90.16l.88-.08.86-.2.8-.33.74-.46.66-.57.56-.66.45-.72.33-.8.2-.85.08-.88v-44.45h.94z" stroke="#3a414a" stroke-width=".05" fill="#3a414a"/><path d="M939.27 1641.03l-.48-.03-.48.03v-.55h.95z" fill="#3a414a"/><path stroke="#3a414a" stroke-width=".05" fill="#3a414a"/><path d="M1195.38 1558.3h-9.27l4.65-14.26z" fill="#3a414a"/><path d="M1196.04 1558.78h-10.58l5.3-16.28zm-9.27-.95h7.96l-3.98-12.26z" stroke="#3a414a" stroke-width=".05" fill="#3a414a"/><g><use xlink:href="#A" transform="matrix(1,0,0,1,1070.103311769426,1598.5117191946563) translate(0 17.22222222222222)"/></g><path d="M1230.04 1440c28 0 50.7 22.7 50.7 50.7 0 28.02-22.7 50.72-50.7 50.72h-78.58c-28 0-50.7-22.7-50.7-50.7 0-28.02 22.7-50.72 50.7-50.72z" stroke="#000" stroke-width="2" fill="#fff"/><g><use xlink:href="#af" transform="matrix(1,0,0,1,1105.7499551973933,1444.9999999999998) translate(21.05643229166666 38.77777777777778)"/><use xlink:href="#ag" transform="matrix(1,0,0,1,1105.7499551973933,1444.9999999999998) translate(104.08594618055555 38.77777777777778)"/><use xlink:href="#ao" transform="matrix(1,0,0,1,1105.7499551973933,1444.9999999999998) translate(8.730043402777776 71.04340277777777)"/><use xlink:href="#ap" transform="matrix(1,0,0,1,1105.7499551973933,1444.9999999999998) translate(66.33638020833332 71.04340277777777)"/></g><path d="M1190.75 1438.5V1246a6 6 0 0 0-6-6h-153.57" stroke="#3a414a" fill="none"/><path d="M1191.22 1439h-.94v-.5h.94z" stroke="#3a414a" stroke-width=".05" fill="#3a414a"/><path d="M1016.4 1240l14.28-4.63v9.27z" stroke="#3a414a" fill="#3a414a"/><defs><path d="M180 0v-1490h510c348 0 508 194 508 460 0 198-88 351-276 417L1256 0h-220L726-579c-117 2-238 0-356 1V0H180zm190-747h312c235 0 327-108 327-283 0-177-92-293-329-293H370v576" id="aq"/><path d="M628 24c-324 0-524-230-524-574 0-343 198-582 503-582 237 0 487 146 487 559v75H286c9 234 145 362 343 362 132 0 231-58 273-172l174 48C1024-91 857 24 628 24zM287-650h624c-17-190-120-322-304-322-192 0-309 151-320 322" id="ar"/><path d="M611 442c-248 0-391-105-460-228l146-94c47 65 117 165 314 165 178 0 307-82 307-266v-224h-17C863-141 792-18 576-18c-268 0-472-195-472-546 0-346 197-568 476-568 216 0 288 133 326 193h17v-179h175V29c0 289-215 413-487 413zm-5-620c203 0 314-146 314-390 0-237-108-403-314-403-213 0-319 180-319 403 0 230 109 390 319 390" id="as"/><path d="M158 0v-1118h180V0H158zm91-1301c-68 0-125-53-125-119s57-119 125-119c69 0 126 53 126 119s-57 119-126 119" id="at"/><path d="M538 24C308 24 148-78 108-271l171-41c32 123 123 178 257 178 156 0 256-77 256-169 0-77-54-128-164-154l-186-44c-203-48-300-148-300-305 0-192 176-326 414-326 230 0 351 112 402 269l-163 42c-31-80-94-158-238-158-133 0-233 69-233 162 0 83 57 129 188 160l169 40c203 48 298 149 298 302 0 196-179 339-441 339" id="au"/><path d="M598-1118v154H368v674c0 100 37 144 132 144 23 0 62-6 92-12L629-6c-37 13-88 20-134 20-193 0-307-107-307-290v-688H20v-154h168v-266h180v266h230" id="av"/><path d="M158 0v-1118h174v172h12c41-113 157-188 290-188 26 0 70 2 91 3v181c-11-2-60-10-108-10-161 0-279 109-279 260V0H158" id="aw"/><path d="M471 26C259 26 90-98 90-318c0-256 228-303 435-329 202-27 287-16 287-108 0-139-79-219-234-219-161 0-248 86-283 164l-173-57c86-203 278-265 451-265 150 0 419 46 419 395V0H815v-152h-12C765-73 660 26 471 26zm31-159c199 0 310-134 310-271v-155c-30 35-226 55-295 64-131 17-246 59-246 186 0 116 97 176 231 176" id="ax"/><path d="M613 24c-304 0-509-231-509-576 0-350 205-580 509-580 305 0 511 230 511 580 0 345-206 576-511 576zm0-161c226 0 329-195 329-415 0-222-103-419-329-419-223 0-326 196-326 419 0 220 103 415 326 415" id="ay"/><path d="M338-670V0H158v-1118h173l1 207c72-158 192-221 342-221 226 0 378 139 378 422V0H872v-695c0-172-96-275-252-275-161 0-282 109-282 300" id="az"/><g id="a"><use transform="matrix(0.010850694444444444,0,0,0.010850694444444444,0,0)" xlink:href="#aq"/><use transform="matrix(0.010850694444444444,0,0,0.010850694444444444,13.975694444444445,0)" xlink:href="#ar"/><use transform="matrix(0.010850694444444444,0,0,0.010850694444444444,26.931423611111104,0)" xlink:href="#as"/><use transform="matrix(0.010850694444444444,0,0,0.010850694444444444,40.55989583333333,0)" xlink:href="#at"/><use transform="matrix(0.010850694444444444,0,0,0.010850694444444444,45.94184027777778,0)" xlink:href="#au"/><use transform="matrix(0.010850694444444444,0,0,0.010850694444444444,57.67144097222221,0)" xlink:href="#av"/><use transform="matrix(0.010850694444444444,0,0,0.010850694444444444,64.94140624999999,0)" xlink:href="#aw"/><use transform="matrix(0.010850694444444444,0,0,0.010850694444444444,73.30729166666666,0)" xlink:href="#ax"/><use transform="matrix(0.010850694444444444,0,0,0.010850694444444444,85.78559027777777,0)" xlink:href="#av"/><use transform="matrix(0.010850694444444444,0,0,0.010850694444444444,93.05555555555556,0)" xlink:href="#at"/><use transform="matrix(0.010850694444444444,0,0,0.010850694444444444,98.43749999999997,0)" xlink:href="#ay"/><use transform="matrix(0.010850694444444444,0,0,0.010850694444444444,111.76215277777776,0)" xlink:href="#az"/></g><path d="M577 24c-279 0-473-224-473-580 0-354 195-576 474-576 218 0 287 134 324 193h14v-551h180V0H922v-173h-20C865-111 790 24 577 24zm27-161c203 0 314-172 314-421 0-247-108-413-314-413-212 0-317 181-317 413 0 235 108 421 317 421" id="aA"/><g id="b"><use transform="matrix(0.010850694444444444,0,0,0.010850694444444444,0,0)" xlink:href="#ax"/><use transform="matrix(0.010850694444444444,0,0,0.010850694444444444,12.47829861111111,0)" xlink:href="#az"/><use transform="matrix(0.010850694444444444,0,0,0.010850694444444444,25.60763888888889,0)" xlink:href="#aA"/></g><path d="M180 0v-1490h190v1322h690V0H180" id="aB"/><g id="c"><use transform="matrix(0.010850694444444444,0,0,0.010850694444444444,0,0)" xlink:href="#aB"/><use transform="matrix(0.010850694444444444,0,0,0.010850694444444444,12.565104166666666,0)" xlink:href="#ay"/><use transform="matrix(0.010850694444444444,0,0,0.010850694444444444,25.889756944444443,0)" xlink:href="#as"/><use transform="matrix(0.010850694444444444,0,0,0.010850694444444444,39.518229166666664,0)" xlink:href="#at"/><use transform="matrix(0.010850694444444444,0,0,0.010850694444444444,44.90017361111111,0)" xlink:href="#az"/></g><path d="M600 0L52-1490h200c166 485 304 806 458 1336 156-533 285-846 449-1336h202L819 0H600" id="aC"/><g id="d"><use transform="matrix(0.010850694444444444,0,0,0.010850694444444444,0,0)" xlink:href="#aC"/><use transform="matrix(0.010850694444444444,0,0,0.010850694444444444,15.33203125,0)" xlink:href="#at"/><use transform="matrix(0.010850694444444444,0,0,0.010850694444444444,20.713975694444443,0)" xlink:href="#au"/><use transform="matrix(0.010850694444444444,0,0,0.010850694444444444,32.443576388888886,0)" xlink:href="#at"/><use transform="matrix(0.010850694444444444,0,0,0.010850694444444444,37.82552083333333,0)" xlink:href="#av"/><use transform="matrix(0.010850694444444444,0,0,0.010850694444444444,44.87847222222222,0)" xlink:href="#ay"/><use transform="matrix(0.010850694444444444,0,0,0.010850694444444444,58.203125,0)" xlink:href="#aw"/></g><path d="M657 26c-323 0-524-166-541-416h195c15 169 171 246 346 246 202 0 356-106 356-265 5-203-294-238-475-293-239-73-380-191-380-389 0-252 224-419 512-419 294 0 499 171 508 396H992c-17-145-151-228-328-228-193 0-321 102-321 242 0 156 175 211 284 241l149 41c160 44 422 134 422 412 0 244-197 432-541 432" id="aD"/><path d="M481 0L54-1118h197c107 314 236 620 325 951 87-331 217-637 324-951h197L670 0H481" id="aE"/><g id="e"><use transform="matrix(0.010850694444444444,0,0,0.010850694444444444,0,0)" xlink:href="#aD"/><use transform="matrix(0.010850694444444444,0,0,0.010850694444444444,14.2578125,0)" xlink:href="#ar"/><use transform="matrix(0.010850694444444444,0,0,0.010850694444444444,27.213541666666664,0)" xlink:href="#aw"/><use transform="matrix(0.010850694444444444,0,0,0.010850694444444444,35.92664930555555,0)" xlink:href="#aE"/><use transform="matrix(0.010850694444444444,0,0,0.010850694444444444,47.98177083333333,0)" xlink:href="#ar"/><use transform="matrix(0.010850694444444444,0,0,0.010850694444444444,60.937499999999986,0)" xlink:href="#aw"/></g><path d="M783 20c-382 0-661-292-661-764 0-473 279-766 661-766 302 0 548 182 601 489h-190c-42-204-217-313-411-313-268 0-476 208-476 590 0 381 209 588 476 588 195 0 369-110 411-313h190c-52 303-296 489-601 489" id="aF"/><path d="M338-1490V0H158v-1490h180" id="aG"/><path d="M613 24c-304 0-509-231-509-576 0-350 205-580 509-580 216 0 392 114 453 309l-173 49c-33-115-133-197-280-197-223 0-326 196-326 419 0 220 103 415 326 415 150 0 252-85 285-206l172 49C1010-95 832 24 613 24" id="aH"/><path d="M158 0v-1490h180v865h22l478-493h223L593-638 1096 0H865L456-523 338-412V0H158" id="aI"/><g id="f"><use transform="matrix(0.010850694444444444,0,0,0.010850694444444444,0,0)" xlink:href="#aF"/><use transform="matrix(0.010850694444444444,0,0,0.010850694444444444,16.23263888888889,0)" xlink:href="#aG"/><use transform="matrix(0.010850694444444444,0,0,0.010850694444444444,21.614583333333336,0)" xlink:href="#at"/><use transform="matrix(0.010850694444444444,0,0,0.010850694444444444,26.99652777777778,0)" xlink:href="#aH"/><use transform="matrix(0.010850694444444444,0,0,0.010850694444444444,39.69184027777778,0)" xlink:href="#aI"/></g><g id="g"><use transform="matrix(0.010850694444444444,0,0,0.010850694444444444,0,0)" xlink:href="#aD"/><use transform="matrix(0.010850694444444444,0,0,0.010850694444444444,14.2578125,0)" xlink:href="#at"/><use transform="matrix(0.010850694444444444,0,0,0.010850694444444444,19.639756944444443,0)" xlink:href="#as"/><use transform="matrix(0.010850694444444444,0,0,0.010850694444444444,33.268229166666664,0)" xlink:href="#az"/></g><path d="M537 14c-226 0-379-139-379-422v-710h180v695c0 172 97 275 253 275 160 0 281-109 281-300v-670h181V0H879v-209C806-46 684 14 537 14" id="aJ"/><path d="M158 418v-1536h174v179h20c37-59 106-193 324-193 279 0 474 222 474 576 0 356-194 580-473 580-213 0-288-135-325-197h-14v591H158zm492-555c209 0 317-186 317-421 0-232-105-413-317-413-206 0-314 166-314 413 0 249 111 421 314 421" id="aK"/><path d="M692-1560L212 224H46l480-1784h166" id="aL"/><g id="h"><use transform="matrix(0.010850694444444444,0,0,0.010850694444444444,0,0)" xlink:href="#aJ"/><use transform="matrix(0.010850694444444444,0,0,0.010850694444444444,13.140190972222221,0)" xlink:href="#aK"/><use transform="matrix(0.010850694444444444,0,0,0.010850694444444444,26.746961805555554,0)" xlink:href="#aL"/><use transform="matrix(0.010850694444444444,0,0,0.010850694444444444,34.75477430555556,0)" xlink:href="#aD"/><use transform="matrix(0.010850694444444444,0,0,0.010850694444444444,49.01258680555556,0)" xlink:href="#at"/><use transform="matrix(0.010850694444444444,0,0,0.010850694444444444,54.39453125,0)" xlink:href="#as"/><use transform="matrix(0.010850694444444444,0,0,0.010850694444444444,68.02300347222223,0)" xlink:href="#az"/></g><g id="i"><use transform="matrix(0.010850694444444444,0,0,0.010850694444444444,0,0)" xlink:href="#at"/><use transform="matrix(0.010850694444444444,0,0,0.010850694444444444,5.381944444444445,0)" xlink:href="#az"/></g><path d="M575 26C254 26 62-139 87-390h195c-13 168 129 246 305 246 202 0 370-106 400-265 38-202-254-238-427-293-212-68-349-179-316-387 40-252 276-421 566-421 289 0 487 168 458 396h-185c7-144-113-228-291-228-194 0-337 102-361 240-27 156 137 212 244 243l142 41c149 43 400 132 354 412-40 244-251 432-596 432" id="aM"/><path d="M66 0l185-1118h180L246 0H66zm307-1301c-71 0-117-55-106-119s74-119 145-119c65 0 117 50 106 118s-78 120-145 120" id="aN"/><path d="M456 442C197 442 73 327 25 209l155-84c33 60 86 160 280 160 184 0 332-89 363-272l37-218-16 4C793-134 707-18 498-18 260-18 96-170 96-443c0-341 216-689 568-689 222 0 274 139 301 198l21-5 30-179h175L999 35c-48 288-275 407-543 407zm75-620c274 0 401-267 401-512 0-170-80-281-247-281-260 0-408 269-408 518 0 167 83 275 254 275" id="aO"/><path d="M356-664L245 0H65l186-1118h173l-32 197c96-152 219-211 366-211 232 0 366 145 319 428L960 0H779l117-701c29-174-48-269-198-269-165 0-310 115-342 306" id="aP"/><g id="j"><use transform="matrix(0.010850694444444444,0,0,0.010850694444444444,0,0)" xlink:href="#aM"/><use transform="matrix(0.010850694444444444,0,0,0.010850694444444444,14.23611111111111,0)" xlink:href="#aN"/><use transform="matrix(0.010850694444444444,0,0,0.010850694444444444,19.62890625,0)" xlink:href="#aO"/><use transform="matrix(0.010850694444444444,0,0,0.010850694444444444,33.25737847222222,0)" xlink:href="#aP"/></g><path d="M443 14C219 14 87-123 134-408l117-710h180L317-423c-28 171 49 275 206 275s300-105 332-300l110-670h181L961 0H787l35-209C722-47 590 14 443 14" id="aQ"/><path d="M-4 418l255-1536h174l-30 179h9c47-68 143-193 355-193 246 0 401 170 401 447 0 348-211 709-568 709-219 0-274-140-300-202h-17l-99 596H-4zm572-555c267 0 411-296 411-543 0-170-78-291-250-291-269 0-405 284-405 542 0 177 81 292 244 292" id="aR"/><g id="k"><use transform="matrix(0.010850694444444444,0,0,0.010850694444444444,0,0)" xlink:href="#aQ"/><use transform="matrix(0.010850694444444444,0,0,0.010850694444444444,13.151041666666666,0)" xlink:href="#aR"/></g><path d="M528 24C258 24 94-156 94-433c0-355 229-699 603-699 270 0 436 178 436 458 0 359-234 698-605 698zm4-161c275 0 420-287 420-533 0-170-77-301-260-301-271 0-418 288-418 536 0 168 77 298 258 298" id="aS"/><path d="M66 0l185-1118h174l-28 172h12c78-136 219-209 411-185l-30 181c-211-47-398 67-428 250L246 0H66" id="aT"/><g id="l"><use transform="matrix(0.010850694444444444,0,0,0.010850694444444444,0,0)" xlink:href="#aS"/><use transform="matrix(0.010850694444444444,0,0,0.010850694444444444,13.335503472222221,0)" xlink:href="#aT"/></g><path d="M87 0l247-1490h190L304-167h690L967 0H87" id="aU"/><path d="M364-449c47-275 139-343 293-425 96-53 178-134 197-250 23-139-70-227-205-227-118 0-247 70-285 236H174c51-251 249-395 485-395 259 0 416 165 378 393-27 161-119 273-261 352-145 80-200 134-231 316H364zm17 462c-75 0-125-60-113-134 12-75 82-135 157-135 74 0 124 60 112 135-12 74-82 134-156 134" id="aV"/><g id="m"><use transform="matrix(0.010850694444444444,0,0,0.010850694444444444,0,0)" xlink:href="#aU"/><use transform="matrix(0.010850694444444444,0,0,0.010850694444444444,12.565104166666666,0)" xlink:href="#aS"/><use transform="matrix(0.010850694444444444,0,0,0.010850694444444444,25.90060763888889,0)" xlink:href="#aO"/><use transform="matrix(0.010850694444444444,0,0,0.010850694444444444,39.52907986111111,0)" xlink:href="#aN"/><use transform="matrix(0.010850694444444444,0,0,0.010850694444444444,44.921874999999986,0)" xlink:href="#aP"/><use transform="matrix(0.010850694444444444,0,0,0.010850694444444444,58.06206597222221,0)" xlink:href="#aV"/></g><path fill="#333" d="M681 22C323 22 94-145 85-462h297c10 151 131 226 296 226 163 0 271-77 271-190 0-102-95-149-257-189l-164-41c-252-61-403-188-403-405 0-269 236-449 560-449 330 0 546 183 551 445H941c-11-119-106-188-259-188-156 0-244 72-244 172-3 156 226 185 373 221 250 61 445 186 445 436 0 271-213 446-575 446" id="aW"/><path fill="#333" d="M128 0v-1118h300V0H128zm150-1264c-91 0-165-68-165-154 0-85 74-154 165-154 90 0 165 69 165 154 0 86-75 154-165 154" id="aX"/><path fill="#333" d="M625 442c-280 0-454-114-503-274l258-72c28 63 97 128 243 128 153 0 246-69 246-216v-206h-23C805-108 717-16 536-16 284-16 81-191 81-561c0-378 208-571 456-571 188 0 280 113 321 202h13v-188h295V-9c0 303-226 451-541 451zm5-686c153 0 240-119 240-319 0-198-86-329-240-329-158 0-241 137-241 329 0 195 85 319 241 319" id="aY"/><path fill="#333" d="M428-647V0H128v-1118h283l4 231c63-156 176-245 348-245 232 0 384 159 384 421V0H847v-659c0-139-76-222-202-222-128 0-217 86-217 234" id="aZ"/><g id="n"><use transform="matrix(0.008680555555555556,0,0,0.008680555555555556,0,0)" xlink:href="#aW"/><use transform="matrix(0.008680555555555556,0,0,0.008680555555555556,11.640625,0)" xlink:href="#aX"/><use transform="matrix(0.008680555555555556,0,0,0.008680555555555556,16.458333333333336,0)" xlink:href="#aY"/><use transform="matrix(0.008680555555555556,0,0,0.008680555555555556,27.690972222222225,0)" xlink:href="#aZ"/></g><path fill="#333" d="M513 14c-232 0-385-159-385-421v-711h300v659c0 139 76 222 202 222 127 0 217-86 217-234v-647h301V0H864l-4-232C797-74 683 14 513 14" id="ba"/><path fill="#333" d="M128 418v-1536h295v188h14c41-89 129-202 319-202 248 0 453 193 453 575 0 372-197 576-455 576-183 0-275-108-317-198h-9v597H128zm534-640c156 0 240-139 240-336 0-196-83-334-240-334-154 0-241 131-241 334 0 202 88 336 241 336" id="bb"/><g id="o"><use transform="matrix(0.008680555555555556,0,0,0.008680555555555556,0,0)" xlink:href="#ba"/><use transform="matrix(0.008680555555555556,0,0,0.008680555555555556,11.067708333333334,0)" xlink:href="#bb"/></g><path d="M87 0l247-1490h908l-28 167H496l-80 487h669l-28 167H387l-83 502h727L1004 0H87" id="bc"/><path d="M691-1118l-25 154H437L325-290c-17 103 16 144 108 144 23 0 63-6 94-12L538-6c-36 12-87 20-136 20-196 0-290-109-260-290l114-688H88l25-154h169l44-266h180l-44 266h229" id="bd"/><path d="M535 24C259 24 94-144 94-427c0-392 272-715 610-715 216 0 356 119 356 305 0 244-237 344-790 350-18 199 49 349 276 352 142 0 260-66 317-173l167 47C947-85 756 24 535 24zM294-623c447-4 586-57 586-218 0-85-78-141-194-141-220 0-342 177-392 359" id="be"/><g id="p"><use transform="matrix(0.010850694444444444,0,0,0.010850694444444444,0,0)" xlink:href="#bc"/><use transform="matrix(0.010850694444444444,0,0,0.010850694444444444,13.368055555555555,0)" xlink:href="#aP"/><use transform="matrix(0.010850694444444444,0,0,0.010850694444444444,26.50824652777778,0)" xlink:href="#bd"/><use transform="matrix(0.010850694444444444,0,0,0.010850694444444444,33.58289930555556,0)" xlink:href="#be"/><use transform="matrix(0.010850694444444444,0,0,0.010850694444444444,46.37586805555556,0)" xlink:href="#aT"/></g><path d="M87 0l247-1490h510c351 0 476 196 432 460-33 197-146 351-346 417L1163 0H943L728-579c-116 2-237 0-355 1L277 0H87zm314-747h311c238 0 346-110 375-283 31-185-52-293-281-293H496" id="bf"/><path d="M451 24C217 22 71-78 61-277l174-29c11 123 90 172 219 172 161 0 280-83 297-181 11-71-30-117-135-143l-179-44c-195-48-280-153-253-316 31-186 223-314 455-314 233 4 337 107 366 275l-165 30c-18-80-65-152-204-152-138 0-256 75-272 174-13 77 32 118 158 149l162 40c195 48 278 154 252 313C904-113 708 24 451 24" id="bg"/><path d="M481 24C202 24 45-202 104-557s293-575 571-575c216 0 263 132 291 193h15l29-179h181L1006 0H831l28-173h-21C788-107 693 24 481 24zm56-161c204 0 342-174 383-422s-41-412-245-412c-215 0-350 183-388 412-39 235 39 422 250 422" id="bh"/><g id="q"><use transform="matrix(0.010850694444444444,0,0,0.010850694444444444,0,0)" xlink:href="#bf"/><use transform="matrix(0.010850694444444444,0,0,0.010850694444444444,13.975694444444445,0)" xlink:href="#be"/><use transform="matrix(0.010850694444444444,0,0,0.010850694444444444,26.768663194444443,0)" xlink:href="#aO"/><use transform="matrix(0.010850694444444444,0,0,0.010850694444444444,40.397135416666664,0)" xlink:href="#aN"/><use transform="matrix(0.010850694444444444,0,0,0.010850694444444444,45.78993055555556,0)" xlink:href="#bg"/><use transform="matrix(0.010850694444444444,0,0,0.010850694444444444,57.50868055555555,0)" xlink:href="#bd"/><use transform="matrix(0.010850694444444444,0,0,0.010850694444444444,64.80034722222221,0)" xlink:href="#aT"/><use transform="matrix(0.010850694444444444,0,0,0.010850694444444444,72.80815972222221,0)" xlink:href="#bh"/><use transform="matrix(0.010850694444444444,0,0,0.010850694444444444,86.44748263888889,0)" xlink:href="#bd"/><use transform="matrix(0.010850694444444444,0,0,0.010850694444444444,93.73914930555556,0)" xlink:href="#aN"/><use transform="matrix(0.010850694444444444,0,0,0.010850694444444444,99.13194444444444,0)" xlink:href="#aS"/><use transform="matrix(0.010850694444444444,0,0,0.010850694444444444,112.46744791666666,0)" xlink:href="#aP"/></g><path d="M524-1490L277 0H87l247-1490h190" id="bi"/><path d="M780-1118l-24 146H497L317 116C281 334 148 448-56 448c-43 0-82-5-117-17l45-161c143 34 239 0 264-153L316-972H89l24-146h227l13-77c43-287 254-417 541-345l-50 154c-23-5-81-8-121-8-107 0-167 63-189 196l-13 80h259" id="bj"/><path d="M65 0l186-1118h175l-31 195c80-148 212-215 337-215 153 0 236 96 255 228 75-143 223-228 382-228 199 0 341 131 298 390L1543 0h-181l126-756c27-162-65-218-177-218-160 0-274 111-297 250L894 0H714l128-773c21-127-57-201-174-201-136 0-277 97-307 277L245 0H65" id="bk"/><g id="r"><use transform="matrix(0.010850694444444444,0,0,0.010850694444444444,0,0)" xlink:href="#bi"/><use transform="matrix(0.010850694444444444,0,0,0.010850694444444444,5.967881944444445,0)" xlink:href="#aP"/><use transform="matrix(0.010850694444444444,0,0,0.010850694444444444,19.108072916666664,0)" xlink:href="#bj"/><use transform="matrix(0.010850694444444444,0,0,0.010850694444444444,26.74696180555555,0)" xlink:href="#aS"/><use transform="matrix(0.010850694444444444,0,0,0.010850694444444444,40.08246527777777,0)" xlink:href="#aT"/><use transform="matrix(0.010850694444444444,0,0,0.010850694444444444,48.8064236111111,0)" xlink:href="#bk"/><use transform="matrix(0.010850694444444444,0,0,0.010850694444444444,68.27256944444443,0)" xlink:href="#bh"/><use transform="matrix(0.010850694444444444,0,0,0.010850694444444444,81.9118923611111,0)" xlink:href="#bd"/><use transform="matrix(0.010850694444444444,0,0,0.010850694444444444,89.20355902777777,0)" xlink:href="#aN"/><use transform="matrix(0.010850694444444444,0,0,0.010850694444444444,94.59635416666666,0)" xlink:href="#aS"/><use transform="matrix(0.010850694444444444,0,0,0.010850694444444444,107.93185763888889,0)" xlink:href="#aP"/></g><path fill="#333" d="M135 0v-1490h305v1237h643V0H135" id="bl"/><path fill="#333" d="M628 22C291 22 81-210 81-554c0-346 210-578 547-578 336 0 547 232 547 578 0 344-211 576-547 576zm0-236c160 0 242-146 242-341 0-197-82-341-242-341S387-753 387-555c0 195 81 341 241 341" id="bm"/><g id="s"><use transform="matrix(0.008680555555555556,0,0,0.008680555555555556,0,0)" xlink:href="#bl"/><use transform="matrix(0.008680555555555556,0,0,0.008680555555555556,10.052083333333334,0)" xlink:href="#bm"/><use transform="matrix(0.008680555555555556,0,0,0.008680555555555556,20.954861111111114,0)" xlink:href="#aY"/><use transform="matrix(0.008680555555555556,0,0,0.008680555555555556,32.1875,0)" xlink:href="#aX"/><use transform="matrix(0.008680555555555556,0,0,0.008680555555555556,37.005208333333336,0)" xlink:href="#aZ"/></g><path d="M492-1490L245 0H65l247-1490h180" id="bn"/><g id="t"><use transform="matrix(0.010850694444444444,0,0,0.010850694444444444,0,0)" xlink:href="#bn"/><use transform="matrix(0.010850694444444444,0,0,0.010850694444444444,5.381944444444445,0)" xlink:href="#aS"/><use transform="matrix(0.010850694444444444,0,0,0.010850694444444444,18.717447916666664,0)" xlink:href="#aO"/><use transform="matrix(0.010850694444444444,0,0,0.010850694444444444,32.345920138888886,0)" xlink:href="#aN"/><use transform="matrix(0.010850694444444444,0,0,0.010850694444444444,37.73871527777777,0)" xlink:href="#aP"/></g><path d="M528 24C258 24 94-156 94-433c0-354 228-699 603-699 222 0 381 120 410 314l-176 39c-14-114-95-192-238-192-272 0-419 288-419 536 0 167 76 298 258 298 155 0 277-90 329-211l166 58C935-93 745 24 528 24" id="bo"/><path d="M492 24C248 24 94-147 94-425c0-352 212-707 569-707 222 0 274 136 303 198h12l92-556h181L1004 0H829l30-173h-19C792-103 700 24 492 24zm32-161c268 0 407-295 407-549 0-175-80-285-247-285-266 0-408 283-408 536 0 174 79 298 248 298" id="bp"/><g id="u"><use transform="matrix(0.010850694444444444,0,0,0.010850694444444444,0,0)" xlink:href="#bo"/><use transform="matrix(0.010850694444444444,0,0,0.010850694444444444,12.706163194444445,0)" xlink:href="#aT"/><use transform="matrix(0.010850694444444444,0,0,0.010850694444444444,20.713975694444443,0)" xlink:href="#be"/><use transform="matrix(0.010850694444444444,0,0,0.010850694444444444,33.50694444444444,0)" xlink:href="#bp"/><use transform="matrix(0.010850694444444444,0,0,0.010850694444444444,47.12456597222222,0)" xlink:href="#be"/><use transform="matrix(0.010850694444444444,0,0,0.010850694444444444,59.91753472222222,0)" xlink:href="#aP"/><use transform="matrix(0.010850694444444444,0,0,0.010850694444444444,73.05772569444444,0)" xlink:href="#bd"/><use transform="matrix(0.010850694444444444,0,0,0.010850694444444444,80.34939236111111,0)" xlink:href="#aN"/><use transform="matrix(0.010850694444444444,0,0,0.010850694444444444,85.7421875,0)" xlink:href="#bh"/><use transform="matrix(0.010850694444444444,0,0,0.010850694444444444,99.38151041666666,0)" xlink:href="#bn"/><use transform="matrix(0.010850694444444444,0,0,0.010850694444444444,104.76345486111111,0)" xlink:href="#bg"/></g><path d="M592 24c-216 0-276-130-305-197h-18L239 0H65l247-1490h180l-92 551h15c51-63 134-193 344-193 246 0 401 170 401 447 0 348-211 709-568 709zm-24-161c267 0 411-296 411-543 0-170-78-291-250-291-269 0-405 284-405 542 0 177 81 292 244 292" id="bq"/><g id="v"><use transform="matrix(0.010850694444444444,0,0,0.010850694444444444,0,0)" xlink:href="#aM"/><use transform="matrix(0.010850694444444444,0,0,0.010850694444444444,14.23611111111111,0)" xlink:href="#aQ"/><use transform="matrix(0.010850694444444444,0,0,0.010850694444444444,27.38715277777778,0)" xlink:href="#bq"/><use transform="matrix(0.010850694444444444,0,0,0.010850694444444444,41.00477430555556,0)" xlink:href="#bk"/><use transform="matrix(0.010850694444444444,0,0,0.010850694444444444,60.470920138888886,0)" xlink:href="#aN"/><use transform="matrix(0.010850694444444444,0,0,0.010850694444444444,65.86371527777777,0)" xlink:href="#bd"/></g><g id="w"><use transform="matrix(0.010850694444444444,0,0,0.010850694444444444,0,0)" xlink:href="#bf"/><use transform="matrix(0.010850694444444444,0,0,0.010850694444444444,13.975694444444445,0)" xlink:href="#be"/><use transform="matrix(0.010850694444444444,0,0,0.010850694444444444,26.768663194444443,0)" xlink:href="#aO"/><use transform="matrix(0.010850694444444444,0,0,0.010850694444444444,40.397135416666664,0)" xlink:href="#aN"/><use transform="matrix(0.010850694444444444,0,0,0.010850694444444444,45.78993055555556,0)" xlink:href="#bg"/><use transform="matrix(0.010850694444444444,0,0,0.010850694444444444,57.50868055555555,0)" xlink:href="#bd"/><use transform="matrix(0.010850694444444444,0,0,0.010850694444444444,64.80034722222221,0)" xlink:href="#aT"/><use transform="matrix(0.010850694444444444,0,0,0.010850694444444444,72.80815972222221,0)" xlink:href="#bh"/><use transform="matrix(0.010850694444444444,0,0,0.010850694444444444,86.44748263888889,0)" xlink:href="#bd"/><use transform="matrix(0.010850694444444444,0,0,0.010850694444444444,93.73914930555556,0)" xlink:href="#aN"/><use transform="matrix(0.010850694444444444,0,0,0.010850694444444444,99.13194444444444,0)" xlink:href="#aS"/><use transform="matrix(0.010850694444444444,0,0,0.010850694444444444,112.46744791666666,0)" xlink:href="#aP"/></g><g id="x"><use transform="matrix(0.010850694444444444,0,0,0.010850694444444444,0,0)" xlink:href="#bp"/><use transform="matrix(0.010850694444444444,0,0,0.010850694444444444,13.617621527777777,0)" xlink:href="#bh"/><use transform="matrix(0.010850694444444444,0,0,0.010850694444444444,27.256944444444443,0)" xlink:href="#bd"/><use transform="matrix(0.010850694444444444,0,0,0.010850694444444444,34.33159722222222,0)" xlink:href="#bh"/></g><path d="M389 0L147-1118h188c55 314 135 617 168 951 141-329 323-637 482-951h205L578 0H389" id="br"/><g id="y"><use transform="matrix(0.010850694444444444,0,0,0.010850694444444444,0,0)" xlink:href="#br"/><use transform="matrix(0.010850694444444444,0,0,0.010850694444444444,12.055121527777777,0)" xlink:href="#bh"/><use transform="matrix(0.010850694444444444,0,0,0.010850694444444444,25.694444444444443,0)" xlink:href="#bn"/><use transform="matrix(0.010850694444444444,0,0,0.010850694444444444,31.07638888888889,0)" xlink:href="#aN"/><use transform="matrix(0.010850694444444444,0,0,0.010850694444444444,36.46918402777777,0)" xlink:href="#bp"/><use transform="matrix(0.010850694444444444,0,0,0.010850694444444444,50.08680555555556,0)" xlink:href="#aV"/></g><path fill="#333" d="M601 0v-560L49-1490h357l252 464c38 68 67 130 97 208 96-243 225-446 337-672h356L905-560V0H601" id="bs"/><path fill="#333" d="M633 22C291 22 81-200 81-553c0-345 210-579 537-579 292 0 525 185 525 567v84H378c7 183 109 277 260 277 105 0 184-46 216-132l272 51C1071-99 893 22 633 22zM380-669h474c-15-146-94-237-233-237-143 0-229 99-241 237" id="bt"/><path fill="#333" d="M572 22C302 22 117-98 78-306l279-48c29 105 101 156 224 156 114 0 185-48 185-115 0-118-228-130-337-155-215-49-322-150-322-317 0-215 187-347 470-347 265 0 424 116 466 298l-266 47c-24-76-87-130-196-130-98 0-174 46-174 113 0 56 38 95 144 117l201 40c216 44 320 143 320 302 0 220-207 367-500 367" id="bu"/><g id="z"><use transform="matrix(0.008680555555555556,0,0,0.008680555555555556,0,0)" xlink:href="#bs"/><use transform="matrix(0.008680555555555556,0,0,0.008680555555555556,11.050347222222223,0)" xlink:href="#bt"/><use transform="matrix(0.008680555555555556,0,0,0.008680555555555556,21.640625,0)" xlink:href="#bu"/></g><path fill="#333" d="M135 0v-1490h340l471 754c59 97 122 210 187 365-32-387-14-721-19-1119h312V0h-341C855-382 627-689 427-1113c32 420 16 695 20 1113H135" id="bv"/><g id="A"><use transform="matrix(0.008680555555555556,0,0,0.008680555555555556,0,0)" xlink:href="#bv"/><use transform="matrix(0.008680555555555556,0,0,0.008680555555555556,13.550347222222223,0)" xlink:href="#bm"/></g><path d="M585 0H87l247-1490h460c436 0 670 281 593 744C1309-277 1035 0 585 0zM305-168h262c366 0 577-221 636-580s-82-574-426-574H496" id="bw"/><path d="M-19 405l72-156c121 32 203 15 288-150l47-93-241-1124h188c55 313 135 616 167 950 142-329 324-636 483-950h205L486 167c-97 177-219 259-378 259-59 0-109-11-127-21" id="bx"/><g id="B"><use transform="matrix(0.010850694444444444,0,0,0.010850694444444444,0,0)" xlink:href="#bw"/><use transform="matrix(0.010850694444444444,0,0,0.010850694444444444,16.026475694444443,0)" xlink:href="#aN"/><use transform="matrix(0.010850694444444444,0,0,0.010850694444444444,21.419270833333332,0)" xlink:href="#bg"/><use transform="matrix(0.010850694444444444,0,0,0.010850694444444444,33.13802083333333,0)" xlink:href="#aR"/><use transform="matrix(0.010850694444444444,0,0,0.010850694444444444,46.75564236111111,0)" xlink:href="#bn"/><use transform="matrix(0.010850694444444444,0,0,0.010850694444444444,52.13758680555556,0)" xlink:href="#bh"/><use transform="matrix(0.010850694444444444,0,0,0.010850694444444444,65.45138888888889,0)" xlink:href="#bx"/></g><g id="C"><use transform="matrix(0.010850694444444444,0,0,0.010850694444444444,0,0)" xlink:href="#be"/><use transform="matrix(0.010850694444444444,0,0,0.010850694444444444,12.79296875,0)" xlink:href="#aT"/><use transform="matrix(0.010850694444444444,0,0,0.010850694444444444,21.516927083333332,0)" xlink:href="#aT"/><use transform="matrix(0.010850694444444444,0,0,0.010850694444444444,29.524739583333332,0)" xlink:href="#aS"/><use transform="matrix(0.010850694444444444,0,0,0.010850694444444444,42.86024305555556,0)" xlink:href="#aT"/></g><g id="D"><use transform="matrix(0.010850694444444444,0,0,0.010850694444444444,0,0)" xlink:href="#bk"/><use transform="matrix(0.010850694444444444,0,0,0.010850694444444444,19.466145833333332,0)" xlink:href="#be"/><use transform="matrix(0.010850694444444444,0,0,0.010850694444444444,32.25911458333333,0)" xlink:href="#bg"/><use transform="matrix(0.010850694444444444,0,0,0.010850694444444444,43.97786458333333,0)" xlink:href="#bg"/><use transform="matrix(0.010850694444444444,0,0,0.010850694444444444,55.69661458333333,0)" xlink:href="#bh"/><use transform="matrix(0.010850694444444444,0,0,0.010850694444444444,69.3359375,0)" xlink:href="#aO"/><use transform="matrix(0.010850694444444444,0,0,0.010850694444444444,82.96440972222223,0)" xlink:href="#be"/></g><path d="M698 20c-339 0-559-226-559-600 0-470 305-930 790-930 306 0 529 181 531 489h-190c-8-202-157-313-348-313-373 0-599 380-599 749 0 281 158 429 382 429 202 0 399-111 474-313h191C1267-166 997 20 698 20" id="by"/><g id="E"><use transform="matrix(0.010850694444444444,0,0,0.010850694444444444,0,0)" xlink:href="#by"/><use transform="matrix(0.010850694444444444,0,0,0.010850694444444444,16.221788194444443,0)" xlink:href="#aT"/><use transform="matrix(0.010850694444444444,0,0,0.010850694444444444,24.229600694444443,0)" xlink:href="#be"/><use transform="matrix(0.010850694444444444,0,0,0.010850694444444444,37.02256944444444,0)" xlink:href="#bp"/><use transform="matrix(0.010850694444444444,0,0,0.010850694444444444,50.64019097222222,0)" xlink:href="#be"/><use transform="matrix(0.010850694444444444,0,0,0.010850694444444444,63.43315972222222,0)" xlink:href="#aP"/><use transform="matrix(0.010850694444444444,0,0,0.010850694444444444,76.57335069444444,0)" xlink:href="#bd"/><use transform="matrix(0.010850694444444444,0,0,0.010850694444444444,83.86501736111111,0)" xlink:href="#aN"/><use transform="matrix(0.010850694444444444,0,0,0.010850694444444444,89.2578125,0)" xlink:href="#bh"/><use transform="matrix(0.010850694444444444,0,0,0.010850694444444444,102.89713541666666,0)" xlink:href="#bn"/><use transform="matrix(0.010850694444444444,0,0,0.010850694444444444,108.27907986111111,0)" xlink:href="#bg"/></g><g id="F"><use transform="matrix(0.010850694444444444,0,0,0.010850694444444444,0,0)" xlink:href="#br"/><use transform="matrix(0.010850694444444444,0,0,0.010850694444444444,12.055121527777777,0)" xlink:href="#bh"/><use transform="matrix(0.010850694444444444,0,0,0.010850694444444444,25.694444444444443,0)" xlink:href="#bn"/><use transform="matrix(0.010850694444444444,0,0,0.010850694444444444,31.07638888888889,0)" xlink:href="#aN"/><use transform="matrix(0.010850694444444444,0,0,0.010850694444444444,36.46918402777777,0)" xlink:href="#bp"/><use transform="matrix(0.010850694444444444,0,0,0.010850694444444444,50.08680555555556,0)" xlink:href="#aV"/></g><g id="G"><use transform="matrix(0.010850694444444444,0,0,0.010850694444444444,0,0)" xlink:href="#by"/><use transform="matrix(0.010850694444444444,0,0,0.010850694444444444,16.221788194444443,0)" xlink:href="#aT"/><use transform="matrix(0.010850694444444444,0,0,0.010850694444444444,24.229600694444443,0)" xlink:href="#be"/><use transform="matrix(0.010850694444444444,0,0,0.010850694444444444,37.02256944444444,0)" xlink:href="#bh"/><use transform="matrix(0.010850694444444444,0,0,0.010850694444444444,50.66189236111111,0)" xlink:href="#bd"/><use transform="matrix(0.010850694444444444,0,0,0.010850694444444444,57.736545138888886,0)" xlink:href="#be"/></g><g id="H"><use transform="matrix(0.010850694444444444,0,0,0.010850694444444444,0,0)" xlink:href="#aQ"/><use transform="matrix(0.010850694444444444,0,0,0.010850694444444444,13.151041666666666,0)" xlink:href="#bg"/><use transform="matrix(0.010850694444444444,0,0,0.010850694444444444,24.869791666666664,0)" xlink:href="#be"/><use transform="matrix(0.010850694444444444,0,0,0.010850694444444444,37.662760416666664,0)" xlink:href="#aT"/></g><g id="I"><use transform="matrix(0.010850694444444444,0,0,0.010850694444444444,0,0)" xlink:href="#bg"/><use transform="matrix(0.010850694444444444,0,0,0.010850694444444444,11.71875,0)" xlink:href="#be"/><use transform="matrix(0.010850694444444444,0,0,0.010850694444444444,24.51171875,0)" xlink:href="#bg"/><use transform="matrix(0.010850694444444444,0,0,0.010850694444444444,36.23046875,0)" xlink:href="#bg"/><use transform="matrix(0.010850694444444444,0,0,0.010850694444444444,47.94921875,0)" xlink:href="#aN"/><use transform="matrix(0.010850694444444444,0,0,0.010850694444444444,53.342013888888886,0)" xlink:href="#aS"/><use transform="matrix(0.010850694444444444,0,0,0.010850694444444444,66.67751736111111,0)" xlink:href="#aP"/></g><g id="J"><use transform="matrix(0.010850694444444444,0,0,0.010850694444444444,0,0)" xlink:href="#aM"/><use transform="matrix(0.010850694444444444,0,0,0.010850694444444444,14.23611111111111,0)" xlink:href="#be"/><use transform="matrix(0.010850694444444444,0,0,0.010850694444444444,27.02907986111111,0)" xlink:href="#aP"/><use transform="matrix(0.010850694444444444,0,0,0.010850694444444444,40.16927083333333,0)" xlink:href="#bp"/></g><path d="M356-670L245 0H65l247-1490h180l-94 565c97-150 219-207 362-207 226 0 365 139 318 422L960 0H779l116-695c29-174-53-275-208-275-158 0-299 107-331 300" id="bz"/><g id="K"><use transform="matrix(0.010850694444444444,0,0,0.010850694444444444,0,0)" xlink:href="#bd"/><use transform="matrix(0.010850694444444444,0,0,0.010850694444444444,7.291666666666666,0)" xlink:href="#bz"/><use transform="matrix(0.010850694444444444,0,0,0.010850694444444444,20.431857638888886,0)" xlink:href="#be"/></g><path d="M317 0L163-1118h191c34 329 72 559 91 925 130-352 253-602 392-925h192c32 328 66 558 83 922 132-350 256-600 396-922h191L1175 0H996c-36-314-76-577-98-915C766-585 635-312 496 0H317" id="bA"/><g id="L"><use transform="matrix(0.010850694444444444,0,0,0.010850694444444444,0,0)" xlink:href="#bA"/><use transform="matrix(0.010850694444444444,0,0,0.010850694444444444,17.784288194444446,0)" xlink:href="#be"/><use transform="matrix(0.010850694444444444,0,0,0.010850694444444444,30.57725694444445,0)" xlink:href="#bn"/><use transform="matrix(0.010850694444444444,0,0,0.010850694444444444,35.95920138888889,0)" xlink:href="#bo"/><use transform="matrix(0.010850694444444444,0,0,0.010850694444444444,48.66536458333333,0)" xlink:href="#aS"/><use transform="matrix(0.010850694444444444,0,0,0.010850694444444444,62.00086805555555,0)" xlink:href="#bk"/><use transform="matrix(0.010850694444444444,0,0,0.010850694444444444,81.46701388888889,0)" xlink:href="#be"/></g><g id="M"><use transform="matrix(0.010850694444444444,0,0,0.010850694444444444,0,0)" xlink:href="#bc"/><use transform="matrix(0.010850694444444444,0,0,0.010850694444444444,13.368055555555555,0)" xlink:href="#bk"/><use transform="matrix(0.010850694444444444,0,0,0.010850694444444444,32.834201388888886,0)" xlink:href="#bh"/><use transform="matrix(0.010850694444444444,0,0,0.010850694444444444,46.47352430555556,0)" xlink:href="#aN"/><use transform="matrix(0.010850694444444444,0,0,0.010850694444444444,51.866319444444436,0)" xlink:href="#bn"/></g><g id="N"><use transform="matrix(0.010850694444444444,0,0,0.010850694444444444,0,0)" xlink:href="#bc"/><use transform="matrix(0.010850694444444444,0,0,0.010850694444444444,13.368055555555555,0)" xlink:href="#bk"/><use transform="matrix(0.010850694444444444,0,0,0.010850694444444444,32.834201388888886,0)" xlink:href="#bh"/><use transform="matrix(0.010850694444444444,0,0,0.010850694444444444,46.47352430555556,0)" xlink:href="#aN"/><use transform="matrix(0.010850694444444444,0,0,0.010850694444444444,51.866319444444436,0)" xlink:href="#bn"/></g><g id="O"><use transform="matrix(0.010850694444444444,0,0,0.010850694444444444,0,0)" xlink:href="#bh"/><use transform="matrix(0.010850694444444444,0,0,0.010850694444444444,13.639322916666666,0)" xlink:href="#bn"/><use transform="matrix(0.010850694444444444,0,0,0.010850694444444444,19.02126736111111,0)" xlink:href="#aT"/><use transform="matrix(0.010850694444444444,0,0,0.010850694444444444,27.02907986111111,0)" xlink:href="#be"/><use transform="matrix(0.010850694444444444,0,0,0.010850694444444444,39.822048611111114,0)" xlink:href="#bh"/><use transform="matrix(0.010850694444444444,0,0,0.010850694444444444,53.46137152777778,0)" xlink:href="#bp"/><use transform="matrix(0.010850694444444444,0,0,0.010850694444444444,67.1875,0)" xlink:href="#bx"/></g><g id="P"><use transform="matrix(0.010850694444444444,0,0,0.010850694444444444,0,0)" xlink:href="#aT"/><use transform="matrix(0.010850694444444444,0,0,0.010850694444444444,8.0078125,0)" xlink:href="#be"/><use transform="matrix(0.010850694444444444,0,0,0.010850694444444444,20.80078125,0)" xlink:href="#aO"/><use transform="matrix(0.010850694444444444,0,0,0.010850694444444444,34.42925347222222,0)" xlink:href="#aN"/><use transform="matrix(0.010850694444444444,0,0,0.010850694444444444,39.82204861111111,0)" xlink:href="#bg"/><use transform="matrix(0.010850694444444444,0,0,0.010850694444444444,51.54079861111111,0)" xlink:href="#bd"/><use transform="matrix(0.010850694444444444,0,0,0.010850694444444444,58.615451388888886,0)" xlink:href="#be"/><use transform="matrix(0.010850694444444444,0,0,0.010850694444444444,71.40842013888889,0)" xlink:href="#aT"/><use transform="matrix(0.010850694444444444,0,0,0.010850694444444444,79.41623263888889,0)" xlink:href="#be"/><use transform="matrix(0.010850694444444444,0,0,0.010850694444444444,92.20920138888889,0)" xlink:href="#bp"/><use transform="matrix(0.010850694444444444,0,0,0.010850694444444444,105.82682291666666,0)" xlink:href="#aV"/></g><g id="Q"><use transform="matrix(0.010850694444444444,0,0,0.010850694444444444,0,0)" xlink:href="#bh"/><use transform="matrix(0.010850694444444444,0,0,0.010850694444444444,13.639322916666666,0)" xlink:href="#bo"/><use transform="matrix(0.010850694444444444,0,0,0.010850694444444444,26.34548611111111,0)" xlink:href="#bo"/><use transform="matrix(0.010850694444444444,0,0,0.010850694444444444,39.05164930555556,0)" xlink:href="#aS"/><use transform="matrix(0.010850694444444444,0,0,0.010850694444444444,52.38715277777778,0)" xlink:href="#aQ"/><use transform="matrix(0.010850694444444444,0,0,0.010850694444444444,65.53819444444444,0)" xlink:href="#aP"/><use transform="matrix(0.010850694444444444,0,0,0.010850694444444444,78.67838541666666,0)" xlink:href="#bd"/></g><g id="R"><use transform="matrix(0.010850694444444444,0,0,0.010850694444444444,0,0)" xlink:href="#bw"/><use transform="matrix(0.010850694444444444,0,0,0.010850694444444444,16.026475694444443,0)" xlink:href="#aN"/><use transform="matrix(0.010850694444444444,0,0,0.010850694444444444,21.419270833333332,0)" xlink:href="#bg"/><use transform="matrix(0.010850694444444444,0,0,0.010850694444444444,33.13802083333333,0)" xlink:href="#aR"/><use transform="matrix(0.010850694444444444,0,0,0.010850694444444444,46.75564236111111,0)" xlink:href="#bn"/><use transform="matrix(0.010850694444444444,0,0,0.010850694444444444,52.13758680555556,0)" xlink:href="#bh"/><use transform="matrix(0.010850694444444444,0,0,0.010850694444444444,65.45138888888889,0)" xlink:href="#bx"/></g><path d="M826-719l-28 166H144l28-166h654" id="bB"/><path d="M-28 0l489-573-281-545h202c65 135 144 295 195 434 91-140 226-300 336-434h214L662-564 960 0H756c-70-143-156-309-211-458C447-309 301-142 185 0H-28" id="bC"/><g id="S"><use transform="matrix(0.010850694444444444,0,0,0.010850694444444444,0,0)" xlink:href="#bh"/><use transform="matrix(0.010850694444444444,0,0,0.010850694444444444,13.639322916666666,0)" xlink:href="#bo"/><use transform="matrix(0.010850694444444444,0,0,0.010850694444444444,26.34548611111111,0)" xlink:href="#bo"/><use transform="matrix(0.010850694444444444,0,0,0.010850694444444444,39.05164930555556,0)" xlink:href="#aS"/><use transform="matrix(0.010850694444444444,0,0,0.010850694444444444,52.38715277777778,0)" xlink:href="#aQ"/><use transform="matrix(0.010850694444444444,0,0,0.010850694444444444,65.53819444444444,0)" xlink:href="#aP"/><use transform="matrix(0.010850694444444444,0,0,0.010850694444444444,78.67838541666666,0)" xlink:href="#bd"/><use transform="matrix(0.010850694444444444,0,0,0.010850694444444444,85.53602430555556,0)" xlink:href="#bB"/><use transform="matrix(0.010850694444444444,0,0,0.010850694444444444,95.77907986111111,0)" xlink:href="#be"/><use transform="matrix(0.010850694444444444,0,0,0.010850694444444444,108.07291666666666,0)" xlink:href="#bC"/><use transform="matrix(0.010850694444444444,0,0,0.010850694444444444,120.20399305555556,0)" xlink:href="#aN"/><use transform="matrix(0.010850694444444444,0,0,0.010850694444444444,125.59678819444444,0)" xlink:href="#bg"/><use transform="matrix(0.010850694444444444,0,0,0.010850694444444444,137.31553819444446,0)" xlink:href="#bd"/><use transform="matrix(0.010850694444444444,0,0,0.010850694444444444,144.39019097222223,0)" xlink:href="#bg"/></g><g id="T"><use transform="matrix(0.010850694444444444,0,0,0.010850694444444444,0,0)" xlink:href="#be"/><use transform="matrix(0.010850694444444444,0,0,0.010850694444444444,12.79296875,0)" xlink:href="#aT"/><use transform="matrix(0.010850694444444444,0,0,0.010850694444444444,21.516927083333332,0)" xlink:href="#aT"/><use transform="matrix(0.010850694444444444,0,0,0.010850694444444444,29.524739583333332,0)" xlink:href="#aS"/><use transform="matrix(0.010850694444444444,0,0,0.010850694444444444,42.86024305555556,0)" xlink:href="#aT"/></g><g id="U"><use transform="matrix(0.010850694444444444,0,0,0.010850694444444444,0,0)" xlink:href="#bg"/><use transform="matrix(0.010850694444444444,0,0,0.010850694444444444,11.71875,0)" xlink:href="#aQ"/><use transform="matrix(0.010850694444444444,0,0,0.010850694444444444,24.869791666666664,0)" xlink:href="#bo"/><use transform="matrix(0.010850694444444444,0,0,0.010850694444444444,37.57595486111111,0)" xlink:href="#bo"/><use transform="matrix(0.010850694444444444,0,0,0.010850694444444444,50.28211805555556,0)" xlink:href="#be"/><use transform="matrix(0.010850694444444444,0,0,0.010850694444444444,63.07508680555555,0)" xlink:href="#bg"/><use transform="matrix(0.010850694444444444,0,0,0.010850694444444444,74.79383680555554,0)" xlink:href="#bg"/></g><g id="V"><use transform="matrix(0.010850694444444444,0,0,0.010850694444444444,0,0)" xlink:href="#aM"/><use transform="matrix(0.010850694444444444,0,0,0.010850694444444444,14.23611111111111,0)" xlink:href="#bh"/><use transform="matrix(0.010850694444444444,0,0,0.010850694444444444,27.549913194444443,0)" xlink:href="#br"/><use transform="matrix(0.010850694444444444,0,0,0.010850694444444444,39.60503472222222,0)" xlink:href="#be"/></g><g id="W"><use transform="matrix(0.010850694444444444,0,0,0.010850694444444444,0,0)" xlink:href="#bf"/><use transform="matrix(0.010850694444444444,0,0,0.010850694444444444,13.975694444444445,0)" xlink:href="#be"/><use transform="matrix(0.010850694444444444,0,0,0.010850694444444444,26.768663194444443,0)" xlink:href="#bp"/><use transform="matrix(0.010850694444444444,0,0,0.010850694444444444,40.38628472222222,0)" xlink:href="#aN"/><use transform="matrix(0.010850694444444444,0,0,0.010850694444444444,45.77907986111111,0)" xlink:href="#aT"/><use transform="matrix(0.010850694444444444,0,0,0.010850694444444444,53.7868923611111,0)" xlink:href="#be"/><use transform="matrix(0.010850694444444444,0,0,0.010850694444444444,66.5798611111111,0)" xlink:href="#bo"/><use transform="matrix(0.010850694444444444,0,0,0.010850694444444444,79.28602430555554,0)" xlink:href="#bd"/></g><g id="X"><use transform="matrix(0.010850694444444444,0,0,0.010850694444444444,0,0)" xlink:href="#bd"/><use transform="matrix(0.010850694444444444,0,0,0.010850694444444444,7.074652777777776,0)" xlink:href="#aS"/></g><g id="Y"><use transform="matrix(0.010850694444444444,0,0,0.010850694444444444,0,0)" xlink:href="#bn"/><use transform="matrix(0.010850694444444444,0,0,0.010850694444444444,5.381944444444445,0)" xlink:href="#aS"/><use transform="matrix(0.010850694444444444,0,0,0.010850694444444444,18.717447916666664,0)" xlink:href="#aO"/><use transform="matrix(0.010850694444444444,0,0,0.010850694444444444,32.345920138888886,0)" xlink:href="#aN"/><use transform="matrix(0.010850694444444444,0,0,0.010850694444444444,37.73871527777777,0)" xlink:href="#aP"/></g><g id="Z"><use transform="matrix(0.010850694444444444,0,0,0.010850694444444444,0,0)" xlink:href="#aR"/><use transform="matrix(0.010850694444444444,0,0,0.010850694444444444,13.617621527777777,0)" xlink:href="#bh"/><use transform="matrix(0.010850694444444444,0,0,0.010850694444444444,27.256944444444443,0)" xlink:href="#aO"/><use transform="matrix(0.010850694444444444,0,0,0.010850694444444444,40.885416666666664,0)" xlink:href="#be"/></g><g id="aa"><use transform="matrix(0.010850694444444444,0,0,0.010850694444444444,0,0)" xlink:href="#bd"/><use transform="matrix(0.010850694444444444,0,0,0.010850694444444444,7.074652777777776,0)" xlink:href="#aS"/></g><g id="ab"><use transform="matrix(0.010850694444444444,0,0,0.010850694444444444,0,0)" xlink:href="#bj"/><use transform="matrix(0.010850694444444444,0,0,0.010850694444444444,7.638888888888888,0)" xlink:href="#be"/><use transform="matrix(0.010850694444444444,0,0,0.010850694444444444,20.43185763888889,0)" xlink:href="#be"/><use transform="matrix(0.010850694444444444,0,0,0.010850694444444444,33.224826388888886,0)" xlink:href="#bp"/></g><path d="M789 20c-398 0-667-293-667-764 0-473 273-766 655-766 315 0 558 198 612 487h-196c-61-191-204-311-415-311-262 0-471 207-471 590 0 380 208 588 482 588 249 0 420-165 425-427H828v-166h572v163c0 370-256 606-611 606" id="bD"/><g id="ac"><use transform="matrix(0.010850694444444444,0,0,0.010850694444444444,0,0)" xlink:href="#bD"/><use transform="matrix(0.010850694444444444,0,0,0.010850694444444444,16.57986111111111,0)" xlink:href="#ar"/><use transform="matrix(0.010850694444444444,0,0,0.010850694444444444,29.535590277777775,0)" xlink:href="#az"/><use transform="matrix(0.010850694444444444,0,0,0.010850694444444444,42.66493055555556,0)" xlink:href="#ar"/><use transform="matrix(0.010850694444444444,0,0,0.010850694444444444,55.62065972222222,0)" xlink:href="#aw"/><use transform="matrix(0.010850694444444444,0,0,0.010850694444444444,63.986545138888886,0)" xlink:href="#ax"/><use transform="matrix(0.010850694444444444,0,0,0.010850694444444444,76.46484375,0)" xlink:href="#av"/><use transform="matrix(0.010850694444444444,0,0,0.010850694444444444,83.51779513888889,0)" xlink:href="#ar"/></g><path d="M784 20c-382 0-662-292-662-764 0-473 280-766 662-766s660 293 660 766c0 472-278 764-660 764zm0-176c266 0 475-207 475-588 0-383-209-590-475-590-268 0-477 208-477 590 0 380 209 588 477 588" id="bE"/><path d="M98-1322v-168h1126v168H757V0H567v-1322H98" id="bF"/><path d="M180 0v-1490h510c348 0 508 209 508 474 0 266-160 477-507 477H370V0H180zm190-706h312c236 0 327-133 327-310 0-176-91-307-329-307H370v617" id="bG"/><g id="ad"><use transform="matrix(0.010850694444444444,0,0,0.010850694444444444,0,0)" xlink:href="#bE"/><use transform="matrix(0.010850694444444444,0,0,0.010850694444444444,16.33029513888889,0)" xlink:href="#bF"/><use transform="matrix(0.010850694444444444,0,0,0.010850694444444444,30.674913194444443,0)" xlink:href="#bG"/></g><g id="ae"><use transform="matrix(0.010850694444444444,0,0,0.010850694444444444,0,0)" xlink:href="#aD"/><use transform="matrix(0.010850694444444444,0,0,0.010850694444444444,14.2578125,0)" xlink:href="#ar"/><use transform="matrix(0.010850694444444444,0,0,0.010850694444444444,27.213541666666664,0)" xlink:href="#az"/><use transform="matrix(0.010850694444444444,0,0,0.010850694444444444,40.34288194444444,0)" xlink:href="#aA"/></g><path d="M645 0H180v-1490h484c435 0 692 280 692 742 0 466-257 748-711 748zM370-168h263c363 0 539-218 539-580 0-358-176-574-521-574H370v1154" id="bH"/><path d="M140 405l46-156c120 36 205 19 263-150l32-93L54-1118h197c107 313 237 620 324 950 87-331 219-637 326-950h196L606 167c-68 178-176 259-334 259-64 0-113-12-132-21" id="bI"/><g id="af"><use transform="matrix(0.010850694444444444,0,0,0.010850694444444444,0,0)" xlink:href="#bH"/><use transform="matrix(0.010850694444444444,0,0,0.010850694444444444,16.03732638888889,0)" xlink:href="#at"/><use transform="matrix(0.010850694444444444,0,0,0.010850694444444444,21.419270833333336,0)" xlink:href="#au"/><use transform="matrix(0.010850694444444444,0,0,0.010850694444444444,33.14887152777778,0)" xlink:href="#aK"/><use transform="matrix(0.010850694444444444,0,0,0.010850694444444444,46.75564236111111,0)" xlink:href="#aG"/><use transform="matrix(0.010850694444444444,0,0,0.010850694444444444,52.13758680555556,0)" xlink:href="#ax"/><use transform="matrix(0.010850694444444444,0,0,0.010850694444444444,64.29036458333333,0)" xlink:href="#bI"/></g><g id="ag"><use transform="matrix(0.010850694444444444,0,0,0.010850694444444444,0,0)" xlink:href="#bE"/><use transform="matrix(0.010850694444444444,0,0,0.010850694444444444,16.33029513888889,0)" xlink:href="#bF"/><use transform="matrix(0.010850694444444444,0,0,0.010850694444444444,30.674913194444443,0)" xlink:href="#bG"/></g><g id="ah"><use transform="matrix(0.010850694444444444,0,0,0.010850694444444444,0,0)" xlink:href="#ar"/><use transform="matrix(0.010850694444444444,0,0,0.010850694444444444,12.955729166666666,0)" xlink:href="#az"/><use transform="matrix(0.010850694444444444,0,0,0.010850694444444444,26.085069444444443,0)" xlink:href="#av"/><use transform="matrix(0.010850694444444444,0,0,0.010850694444444444,33.35503472222222,0)" xlink:href="#aw"/><use transform="matrix(0.010850694444444444,0,0,0.010850694444444444,42.06814236111111,0)" xlink:href="#bI"/></g><path d="M158 0v-1118h175l1 205c55-151 181-225 313-225 147 0 245 90 285 228 53-141 190-228 352-228 194 0 352 125 352 384V0h-181v-749c0-161-105-225-225-225-151 0-243 103-243 244V0H807v-767c0-124-93-207-219-207-131 0-250 92-250 270V0H158" id="bJ"/><g id="ai"><use transform="matrix(0.010850694444444444,0,0,0.010850694444444444,0,0)" xlink:href="#aK"/><use transform="matrix(0.010850694444444444,0,0,0.010850694444444444,13.606770833333332,0)" xlink:href="#aw"/><use transform="matrix(0.010850694444444444,0,0,0.010850694444444444,21.603732638888886,0)" xlink:href="#ay"/><use transform="matrix(0.010850694444444444,0,0,0.010850694444444444,34.928385416666664,0)" xlink:href="#bJ"/><use transform="matrix(0.010850694444444444,0,0,0.010850694444444444,54.39453125,0)" xlink:href="#aK"/><use transform="matrix(0.010850694444444444,0,0,0.010850694444444444,68.00130208333333,0)" xlink:href="#av"/></g><path d="M180 0v-1490h908v168H370v486h669v168H370v500h727V0H180" id="bK"/><g id="aj"><use transform="matrix(0.010850694444444444,0,0,0.010850694444444444,0,0)" xlink:href="#bK"/><use transform="matrix(0.010850694444444444,0,0,0.010850694444444444,13.35720486111111,0)" xlink:href="#az"/><use transform="matrix(0.010850694444444444,0,0,0.010850694444444444,26.48654513888889,0)" xlink:href="#av"/><use transform="matrix(0.010850694444444444,0,0,0.010850694444444444,33.53949652777777,0)" xlink:href="#ar"/><use transform="matrix(0.010850694444444444,0,0,0.010850694444444444,46.495225694444436,0)" xlink:href="#aw"/></g><path d="M677 24c-213 0-288-135-325-197h-20V0H158v-1490h180v551h14c37-59 106-193 324-193 279 0 474 222 474 576 0 356-194 580-473 580zm-27-161c209 0 317-186 317-421 0-232-105-413-317-413-206 0-314 166-314 413 0 249 111 421 314 421" id="bL"/><g id="ak"><use transform="matrix(0.010850694444444444,0,0,0.010850694444444444,0,0)" xlink:href="#aD"/><use transform="matrix(0.010850694444444444,0,0,0.010850694444444444,14.2578125,0)" xlink:href="#aJ"/><use transform="matrix(0.010850694444444444,0,0,0.010850694444444444,27.39800347222222,0)" xlink:href="#bL"/><use transform="matrix(0.010850694444444444,0,0,0.010850694444444444,41.00477430555556,0)" xlink:href="#bJ"/><use transform="matrix(0.010850694444444444,0,0,0.010850694444444444,60.470920138888886,0)" xlink:href="#at"/><use transform="matrix(0.010850694444444444,0,0,0.010850694444444444,65.85286458333333,0)" xlink:href="#av"/></g><path d="M678-1118v154H420V0H240v-964H20v-154h220v-149c0-194 155-293 318-293 85 0 141 18 168 30l-50 154c-19-6-47-17-97-17-111 0-159 58-159 166v109h258" id="bM"/><g id="al"><use transform="matrix(0.010850694444444444,0,0,0.010850694444444444,0,0)" xlink:href="#aC"/><use transform="matrix(0.010850694444444444,0,0,0.010850694444444444,14.20355902777778,0)" xlink:href="#ar"/><use transform="matrix(0.010850694444444444,0,0,0.010850694444444444,27.159288194444443,0)" xlink:href="#aw"/><use transform="matrix(0.010850694444444444,0,0,0.010850694444444444,35.87239583333333,0)" xlink:href="#at"/><use transform="matrix(0.010850694444444444,0,0,0.010850694444444444,41.25434027777777,0)" xlink:href="#bM"/><use transform="matrix(0.010850694444444444,0,0,0.010850694444444444,49.47916666666666,0)" xlink:href="#bI"/></g><g id="am"><use transform="matrix(0.010850694444444444,0,0,0.010850694444444444,0,0)" xlink:href="#bE"/><use transform="matrix(0.010850694444444444,0,0,0.010850694444444444,16.33029513888889,0)" xlink:href="#bF"/><use transform="matrix(0.010850694444444444,0,0,0.010850694444444444,30.674913194444443,0)" xlink:href="#bG"/></g><path d="M383-449c-3-277 82-343 222-425 88-53 156-134 156-250 0-139-108-227-243-227-118 0-235 70-246 236H82c10-251 200-395 436-395 259 0 427 165 427 393 0 161-74 273-203 352-132 80-180 132-178 316H383zm93 462c-75 0-135-60-135-134 0-75 60-135 135-135 74 0 134 60 134 135 0 74-60 134-134 134" id="bN"/><g id="an"><use transform="matrix(0.010850694444444444,0,0,0.010850694444444444,0,0)" xlink:href="#aC"/><use transform="matrix(0.010850694444444444,0,0,0.010850694444444444,14.20355902777778,0)" xlink:href="#ax"/><use transform="matrix(0.010850694444444444,0,0,0.010850694444444444,26.68185763888889,0)" xlink:href="#aG"/><use transform="matrix(0.010850694444444444,0,0,0.010850694444444444,32.063802083333336,0)" xlink:href="#at"/><use transform="matrix(0.010850694444444444,0,0,0.010850694444444444,37.44574652777778,0)" xlink:href="#aA"/><use transform="matrix(0.010850694444444444,0,0,0.010850694444444444,51.05251736111112,0)" xlink:href="#bN"/></g><g id="ao"><use transform="matrix(0.010850694444444444,0,0,0.010850694444444444,0,0)" xlink:href="#ar"/><use transform="matrix(0.010850694444444444,0,0,0.010850694444444444,12.955729166666666,0)" xlink:href="#aw"/><use transform="matrix(0.010850694444444444,0,0,0.010850694444444444,21.668836805555554,0)" xlink:href="#aw"/><use transform="matrix(0.010850694444444444,0,0,0.010850694444444444,29.665798611111104,0)" xlink:href="#ay"/><use transform="matrix(0.010850694444444444,0,0,0.010850694444444444,42.990451388888886,0)" xlink:href="#aw"/></g><g id="ap"><use transform="matrix(0.010850694444444444,0,0,0.010850694444444444,0,0)" xlink:href="#bJ"/><use transform="matrix(0.010850694444444444,0,0,0.010850694444444444,19.466145833333332,0)" xlink:href="#ar"/><use transform="matrix(0.010850694444444444,0,0,0.010850694444444444,32.421875,0)" xlink:href="#au"/><use transform="matrix(0.010850694444444444,0,0,0.010850694444444444,44.15147569444444,0)" xlink:href="#au"/><use transform="matrix(0.010850694444444444,0,0,0.010850694444444444,55.881076388888886,0)" xlink:href="#ax"/><use transform="matrix(0.010850694444444444,0,0,0.010850694444444444,68.359375,0)" xlink:href="#as"/><use transform="matrix(0.010850694444444444,0,0,0.010850694444444444,81.98784722222223,0)" xlink:href="#ar"/></g></defs></g></svg>