<svg xmlns="http://www.w3.org/2000/svg" xmlns:xlink="http://www.w3.org/1999/xlink" xmlns:lucid="lucid" width="1775.25" height="1089.42"><g transform="translate(395.4600450519997 642.153728718009)" lucid:page-tab-id="0_0"><path d="M-4000-1500h7000V9000h-7000z" fill="#fff"/><path d="M-394.46-629.15a12 12 0 0 1 12-12H1366.8a12 12 0 0 1 12 12v29.88H-394.47z" stroke="#000" stroke-width="2" fill="#fff"/><path d="M-394.46-557.38v-41.9h440v41.9" stroke="#000" stroke-width="2" fill="#fff"/><path d="M45.54-557.38v-41.9h720v41.9M765.54-557.38v-41.9h613.25v41.9" stroke="#000" stroke-width="2" fill="#fff"/><path d="M-394.46-557.38h440V446.27h-428a12 12 0 0 1-12-12z" stroke="#000" stroke-width="2" fill="none"/><path d="M45.54-557.38h720V446.27h-720z" stroke="#000" stroke-width="2" fill="none"/><path d="M765.54-557.38h613.25v991.65a12 12 0 0 1-12 12H765.53z" stroke="#000" stroke-width="2" fill="none"/><use xlink:href="#a" transform="matrix(1,0,0,1,-394.4600450519997,-641.153728718009) translate(836.0071614583334 29.08376736111111)"/><use xlink:href="#b" transform="matrix(1,0,0,1,-394.4600450519997,-599.2657078846756) translate(186.71549479166666 29.08376736111111)"/><use xlink:href="#c" transform="matrix(1,0,0,1,45.539954948000286,-599.2657078846756) translate(325.3483072916667 29.08376736111111)"/><use xlink:href="#d" transform="matrix(1,0,0,1,765.5399549480003,-599.2657078846756) translate(252.22569444444446 29.08376736111111)"/><path d="M-166.98-505.3c0 11.04-8.95 20-20 20s-20-8.96-20-20c0-11.06 8.95-20 20-20s20 8.94 20 20z" stroke="#000" stroke-width="2"/><path d="M-167.38 329.32c0 11.05-8.95 20-20 20-11.04 0-20-8.95-20-20s8.96-20 20-20c11.05 0 20 8.95 20 20z" stroke="#000" stroke-width="2" fill="#fff"/><path d="M-175.38 329.32c0 6.63-5.37 12-12 12-6.62 0-12-5.37-12-12s5.38-12 12-12c6.63 0 12 5.37 12 12z" stroke="#000" stroke-width="2"/><path d="M-146.98-409.08c22.1 0 40 17.9 40 40s-17.9 40-40 40h-80c-22.1 0-40-17.9-40-40s17.9-40 40-40z" stroke="#000" stroke-width="2" fill="#fff"/><use xlink:href="#e" transform="matrix(1,0,0,1,-261.9801763807743,-404.08488247391733) translate(11.008029513888886 43.40277777777778)"/><use xlink:href="#f" transform="matrix(1,0,0,1,-261.9801763807743,-404.08488247391733) translate(69.14605034722223 43.40277777777778)"/><path d="M-187.6-262.7l.6-64.88" stroke="#3a414a" fill="none"/><path d="M-187.76-247.93l-4.5-14.3 9.28.08z" stroke="#3a414a" fill="#3a414a"/><path d="M-186.5-327.57h-.96v-.5h.96z" stroke="#3a414a" stroke-width=".05" fill="#3a414a"/><path d="M-121.1-245.3c22.1 0 40 17.9 40 40 0 22.08-17.9 40-40 40h-133.36c-22.1 0-40-17.92-40-40 0-22.1 17.9-40 40-40z" stroke="#000" stroke-width="2" fill="#fff"/><use xlink:href="#g" transform="matrix(1,0,0,1,-289.4600450519997,-240.30884080725042) translate(69.24675347222222 25.90277777777778)"/><use xlink:href="#h" transform="matrix(1,0,0,1,-289.4600450519997,-240.30884080725042) translate(10.658428819444461 58.16840277777778)"/><path d="M-187.15-102.7l-.62-61.1" stroke="#3a414a" fill="none"/><path d="M-187-87.93l-4.78-14.2 9.27-.1z" stroke="#3a414a" fill="#3a414a"/><path d="M-187.3-163.8h-.94v-.5h.94z" stroke="#3a414a" stroke-width=".05" fill="#3a414a"/><path d="M-120.3-85.3c22.1 0 40 17.9 40 40 0 22.08-17.9 40-40 40h-133.37c-22.1 0-40-17.92-40-40 0-22.1 17.9-40 40-40z" stroke="#000" stroke-width="2" fill="#fff"/><use xlink:href="#i" transform="matrix(1,0,0,1,-288.6668762190079,-80.30884080725036) translate(4.1701388888889 43.40277777777778)"/><use xlink:href="#j" transform="matrix(1,0,0,1,-288.6668762190079,-80.30884080725036) translate(97.98524305555556 43.40277777777778)"/><path d="M-186.98-4.8v49.67M-186.98-4.8v-.5" stroke="#3a414a" fill="none"/><path d="M-186.98 59.62l-4.64-14.26h9.28z" stroke="#3a414a" fill="#3a414a"/><path d="M-120.3 62.24c22.1 0 40 17.9 40 40s-17.9 40-40 40h-133.37c-22.1 0-40-17.9-40-40s17.9-40 40-40z" stroke="#000" stroke-width="2" fill="#fff"/><use xlink:href="#k" transform="matrix(1,0,0,1,-288.6668762190079,67.24145357365899) translate(7.582682291666671 43.40277777777778)"/><use xlink:href="#l" transform="matrix(1,0,0,1,-288.6668762190079,67.24145357365899) translate(86.95551215277777 43.40277777777778)"/><use xlink:href="#f" transform="matrix(1,0,0,1,-288.6668762190079,67.24145357365899) translate(126.57139756944444 43.40277777777778)"/><path d="M-152.3 178.85c25.02 0 45.32 20.3 45.32 45.33 0 25.03-20.3 45.33-45.33 45.33h-69.35c-25.03 0-45.33-20.3-45.33-45.32 0-25.04 20.3-45.33 45.33-45.33z" stroke="#000" stroke-width="2" fill="#fff"/><use xlink:href="#m" transform="matrix(1,0,0,1,-261.9801763807743,183.8462712819911) translate(54.92036458333333 34.18402777777778)"/><use xlink:href="#n" transform="matrix(1,0,0,1,-261.9801763807743,183.8462712819911) translate(6.976571180555576 61.072048611111114)"/><path d="M-186.98 271v18.22a.2.2 0 0 1-.2.2.2.2 0 0 0-.2.2v2.32" stroke="#3a414a" fill="none"/><path d="M-186.5 271.02h-.96v-.5h.96z" stroke="#3a414a" stroke-width=".05" fill="#3a414a"/><path d="M-187.38 306.7l-4.63-14.26h9.26z" stroke="#3a414a" fill="#3a414a"/><path d="M-78.8 102.24h57.34a6 6 0 0 0 6-6v-529.27a6 6 0 0 1 6-6h121.12" stroke="#3a414a" fill="none"/><path d="M-78.78 102.72h-.54l.03-.47v-.48h.52z" stroke="#3a414a" stroke-width=".05" fill="#3a414a"/><path d="M126.43-439.03l-14.27 4.63v-9.27z" stroke="#3a414a" fill="#3a414a"/><path d="M227-496.1a10.67 10.67 0 0 1 10.46 0l96.22 54.13a3.37 3.37 0 0 1 0 5.88l-96.22 54.13a10.67 10.67 0 0 1-10.46 0l-96.23-54.12a3.37 3.37 0 0 1 0-5.87z" stroke="#000" stroke-width="2" fill="#fff"/><use xlink:href="#o" transform="matrix(1,0,0,1,130.5399549480003,-494.03149705725036) translate(77.21116319444445 49.02777777777778)"/><use xlink:href="#p" transform="matrix(1,0,0,1,130.5399549480003,-494.03149705725036) translate(43.58941840277779 75.91579861111111)"/><use xlink:href="#q" transform="matrix(1,0,0,1,130.5399549480003,-494.03149705725036) translate(129.54861979166668 75.91579861111111)"/><path d="M361.36-438.56H336.9v-.95h24.46zm40.17 0h-8.57v-.95h8.57z" stroke="#3a414a" stroke-width=".05" fill="#3a414a"/><path d="M336.92-438.56h-.56l.05-.47-.04-.48h.56z" fill="#3a414a"/><path stroke="#3a414a" stroke-width=".05" fill="#3a414a"/><path d="M416.3-439.03l-14.27 4.63v-9.27z" fill="#3a414a"/><path d="M417.83-439.03l-16.28 5.3v-10.6zm-15.33 3.98l12.26-3.98L402.5-443z" stroke="#3a414a" stroke-width=".05" fill="#3a414a"/><use xlink:href="#r" transform="matrix(1,0,0,1,361.36251484470296,-449.7867053905837) translate(0 17.22222222222222)"/><path d="M592.3-479.03c22.08 0 40 17.9 40 40s-17.92 40-40 40H458.9c-22.08 0-40-17.9-40-40s17.92-40 40-40z" stroke="#000" stroke-width="2" fill="#fff"/><use xlink:href="#s" transform="matrix(1,0,0,1,423.9133546244673,-474.03149705725036) translate(23.782343750000003 30.27777777777778)"/><use xlink:href="#t" transform="matrix(1,0,0,1,423.9133546244673,-474.03149705725036) translate(85.62045138888888 30.27777777777778)"/><use xlink:href="#u" transform="matrix(1,0,0,1,423.9133546244673,-474.03149705725036) translate(161.71637152777777 30.27777777777778)"/><use xlink:href="#v" transform="matrix(1,0,0,1,423.9133546244673,-474.03149705725036) translate(52.32509548611111 57.165798611111114)"/><path d="M232.7-296.42h-.95v-22.64h.95zm0-44.15h-.95v-38.53h.95z" stroke="#3a414a" stroke-width=".05" fill="#3a414a"/><path d="M232.23-379.6l.47-.03v.54h-.95v-.53z" fill="#3a414a"/><path stroke="#3a414a" stroke-width=".05" fill="#3a414a"/><path d="M232.23-281.65l-4.64-14.27h9.26z" fill="#3a414a"/><path d="M232.23-280.1l-5.3-16.3h10.6zm-3.98-15.34l3.98 12.25 3.98-12.24z" stroke="#3a414a" stroke-width=".05" fill="#3a414a"/><use xlink:href="#w" transform="matrix(1,0,0,1,220.0000922862339,-340.5717795625914) translate(0 17.22222222222222)"/><path d="M298.9-279.03c22.1 0 40 17.9 40 40s-17.9 40-40 40H165.55c-22.1 0-40-17.9-40-40s17.9-40 40-40z" stroke="#000" stroke-width="2" fill="#fff"/><use xlink:href="#x" transform="matrix(1,0,0,1,130.5399549480003,-274.03149705725036) translate(31.475486111111117 30.27777777777778)"/><use xlink:href="#y" transform="matrix(1,0,0,1,130.5399549480003,-274.03149705725036) translate(114.50500000000001 30.27777777777778)"/><use xlink:href="#z" transform="matrix(1,0,0,1,130.5399549480003,-274.03149705725036) translate(55.19510416666667 57.165798611111114)"/><path d="M232.23-197.53v520.85a6 6 0 0 1-6 6H-150" stroke="#3a414a" fill="none"/><path d="M232.7-197.52h-.95v-.5h.95z" stroke="#3a414a" stroke-width=".05" fill="#3a414a"/><path d="M-164.76 329.32l14.27-4.63v9.26z" stroke="#3a414a" fill="#3a414a"/><path d="M525.6-397.53v61.1" stroke="#3a414a" fill="none"/><path d="M526.08-397.52h-.96v-.5h.96z" stroke="#3a414a" stroke-width=".05" fill="#3a414a"/><path d="M525.6-321.65l-4.63-14.27h9.26z" stroke="#3a414a" fill="#3a414a"/><path d="M592.3-319.03c22.08 0 40 17.9 40 40s-17.92 40-40 40H458.9c-22.08 0-40-17.9-40-40s17.92-40 40-40z" stroke="#000" stroke-width="2" fill="#fff"/><use xlink:href="#A" transform="matrix(1,0,0,1,423.9133546244673,-314.03149705725036) translate(12.384114583333343 43.40277777777778)"/><use xlink:href="#B" transform="matrix(1,0,0,1,423.9133546244673,-314.03149705725036) translate(82.06727430555557 43.40277777777778)"/><path d="M633.8-279.03h79.1a6 6 0 0 0 6-6v-195a6 6 0 0 1 6-6h63.25" stroke="#3a414a" fill="none"/><path d="M633.8-278.56h-.54l.03-.46-.03-.5h.53z" stroke="#3a414a" stroke-width=".05" fill="#3a414a"/><path d="M802.92-486.04l-14.26 4.63v-9.28z" stroke="#3a414a" fill="#3a414a"/><path d="M978.9-526.04c22.1 0 40 17.9 40 40s-17.9 40-40 40H845.55c-22.1 0-40-17.9-40-40s17.9-40 40-40z" stroke="#000" stroke-width="2" fill="#fff"/><use xlink:href="#C" transform="matrix(1,0,0,1,810.5399549480005,-521.044353718009) translate(18.31401909722223 43.40277777777778)"/><use xlink:href="#l" transform="matrix(1,0,0,1,810.5399549480005,-521.044353718009) translate(99.67252604166667 43.40277777777778)"/><use xlink:href="#D" transform="matrix(1,0,0,1,810.5399549480005,-521.044353718009) translate(139.28841145833334 43.40277777777778)"/><path d="M525.6-237.53v61.12" stroke="#3a414a" fill="none"/><path d="M526.08-237.52h-.96v-.5h.96z" stroke="#3a414a" stroke-width=".05" fill="#3a414a"/><path d="M525.6-161.65l-4.63-14.26h9.26z" stroke="#3a414a" fill="#3a414a"/><path d="M592.3-159.03c22.08 0 40 17.9 40 40s-17.92 40-40 40H458.9c-22.08 0-40-17.9-40-40s17.92-40 40-40z" stroke="#000" stroke-width="2" fill="#fff"/><use xlink:href="#E" transform="matrix(1,0,0,1,423.9133546244673,-154.03149705725036) translate(25.02474826388889 30.27777777777778)"/><use xlink:href="#l" transform="matrix(1,0,0,1,423.9133546244673,-154.03149705725036) translate(89.78169270833334 30.27777777777778)"/><use xlink:href="#F" transform="matrix(1,0,0,1,423.9133546244673,-154.03149705725036) translate(129.397578125 30.27777777777778)"/><use xlink:href="#t" transform="matrix(1,0,0,1,423.9133546244673,-154.03149705725036) translate(10.859166666666676 57.165798611111114)"/><use xlink:href="#G" transform="matrix(1,0,0,1,423.9133546244673,-154.03149705725036) translate(86.95508680555557 57.165798611111114)"/><path d="M417.4-119.03H161.98a6 6 0 0 0-6 6v331.2a6 6 0 0 1-6 6H-89.6" stroke="#3a414a" fill="none"/><path d="M417.9-119.05l.03.5h-.53v-.96h.54z" stroke="#3a414a" stroke-width=".05" fill="#3a414a"/><path d="M-104.36 224.18l14.26-4.64v9.27z" stroke="#3a414a" fill="#3a414a"/><path d="M1020.4-486.04h50.75" stroke="#3a414a" fill="none"/><path d="M1020.43-485.57h-.54v-.96h.53z" stroke="#3a414a" stroke-width=".05" fill="#3a414a"/><path d="M1085.92-486.04l-14.27 4.63v-9.28z" stroke="#3a414a" fill="#3a414a"/><path d="M1160.74-542.44a8 8 0 0 1 9.6 0l70.4 52.8a4.5 4.5 0 0 1 0 7.2l-70.4 52.8a8 8 0 0 1-9.6 0l-70.4-52.8a4.5 4.5 0 0 1 0-7.2z" stroke="#000" stroke-width="2" fill="#fff"/><use xlink:href="#H" transform="matrix(1,0,0,1,1090.5399549480005,-541.044353718009) translate(40.08203993055556 45.59027777777778)"/><use xlink:href="#I" transform="matrix(1,0,0,1,1090.5399549480005,-541.044353718009) translate(43.798402777777774 77.85590277777777)"/><path d="M1266.02-262.7h-.95V-366.4h.95zm-5.47-223.74l1 .24.93.38.87.54.77.66.66.77.53.87.4.93.24 1 .08 1v92.12h-.95v-92.1l-.08-.88-.2-.85-.34-.8-.45-.74-.55-.65-.66-.56-.75-.47-.8-.33-.85-.2-.88-.07h-15.48v-.95h15.52z" stroke="#3a414a" stroke-width=".05" fill="#3a414a"/><path d="M1244.06-485.57h-.56l.04-.47-.04-.48h.56z" fill="#3a414a"/><path stroke="#3a414a" stroke-width=".05" fill="#3a414a"/><path d="M1265.54-247.93l-4.63-14.26h9.27z" fill="#3a414a"/><path d="M1265.54-246.4l-5.3-16.27h10.6zm-3.98-15.32l3.98 12.26 3.98-12.26z" stroke="#3a414a" stroke-width=".05" fill="#3a414a"/><use xlink:href="#r" transform="matrix(1,0,0,1,1249.7413438368894,-387.9296691288317) translate(0 17.22222222222222)"/><path d="M1185.54-239.3a6 6 0 0 1 6-6h148a6 6 0 0 1 6 6v8a6 6 0 0 1-6 6h-148a6 6 0 0 1-6-6z" stroke="#000" stroke-width="2"/><path d="M1025-359.18H914.93l-.88.07-.84.2-.8.32-.73.46-.66.56-.55.66-.46.74-.34.8-.2.84-.07.88v45h-.96v-45.03l.08-1 .23-.98.4-.94.52-.86.66-.77.78-.66.87-.53.94-.38 1-.25 1-.08H1025zm141.02-6.45l-.08 1-.24.98-.4.94-.52.85-.66.78-.77.66-.87.52-.94.38-1 .24-.98.08h-110.1v-.95h110.06l.88-.07.85-.2.8-.33.74-.45.65-.57.56-.66.46-.75.33-.8.2-.84.07-.87v-60.87h.95z" stroke="#3a414a" stroke-width=".05" fill="#3a414a"/><path d="M1165.54-427.04l.48-.03v.54h-.95v-.54z" fill="#3a414a"/><path stroke="#3a414a" stroke-width=".05" fill="#3a414a"/><path d="M908.9-293.88l-4.62-14.27h9.27z" fill="#3a414a"/><path d="M908.9-292.35l-5.28-16.27h10.58zm-3.97-15.32l3.98 12.25 4-12.25z" stroke="#3a414a" stroke-width=".05" fill="#3a414a"/><use xlink:href="#w" transform="matrix(1,0,0,1,1025.000092286234,-370.40921228117367) translate(0 17.22222222222222)"/><path d="M948.9-291.27c22.1 0 40 17.9 40 40s-17.9 40-40 40h-80c-22.08 0-40-17.9-40-40s17.92-40 40-40z" stroke="#000" stroke-width="2" fill="#fff"/><use xlink:href="#J" transform="matrix(1,0,0,1,833.9133546244673,-286.265707868085) translate(22.579869791666674 25.90277777777778)"/><use xlink:href="#K" transform="matrix(1,0,0,1,833.9133546244673,-286.265707868085) translate(94.06424479166667 25.90277777777778)"/><use xlink:href="#f" transform="matrix(1,0,0,1,833.9133546244673,-286.265707868085) translate(40.08203993055555 58.16840277777778)"/><path d="M1085.54-159.03c22.1 0 40 17.9 40 40s-17.9 40-40 40h-80c-22.1 0-40-17.9-40-40s17.9-40 40-40z" stroke="#000" stroke-width="2" fill="#fff"/><use xlink:href="#L" transform="matrix(1,0,0,1,970.5399549480005,-154.03149705725036) translate(13.047534722222219 30.27777777777778)"/><use xlink:href="#K" transform="matrix(1,0,0,1,970.5399549480005,-154.03149705725036) translate(103.59657986111111 30.27777777777778)"/><use xlink:href="#D" transform="matrix(1,0,0,1,970.5399549480005,-154.03149705725036) translate(51.806215277777774 57.165798611111114)"/><path d="M1288.85-159.03c22.1 0 40 17.9 40 40s-17.9 40-40 40h-80c-22.1 0-40-17.9-40-40s17.9-40 40-40z" stroke="#000" stroke-width="2" fill="#fff"/><use xlink:href="#M" transform="matrix(1,0,0,1,1173.8532551097667,-154.03149705725036) translate(27.652569444444445 30.27777777777778)"/><use xlink:href="#K" transform="matrix(1,0,0,1,1173.8532551097667,-154.03149705725036) translate(88.9915451388889 30.27777777777778)"/><use xlink:href="#N" transform="matrix(1,0,0,1,1173.8532551097667,-154.03149705725036) translate(50.211163194444445 57.165798611111114)"/><path d="M1305.54-224.8v26.13a6 6 0 0 1-6 6h-44.7a6 6 0 0 0-6 6v10.25" stroke="#3a414a" fill="none"/><path stroke="#3a414a" stroke-width=".05" fill="#3a414a"/><path d="M1248.85-161.65l-4.63-14.26h9.27z" stroke="#3a414a" fill="#3a414a"/><path d="M1225.54-224.8v26.13a6 6 0 0 1-6 6h-168a6 6 0 0 0-6 6v10.25" stroke="#3a414a" fill="none"/><path stroke="#3a414a" stroke-width=".05" fill="#3a414a"/><path d="M1045.54-161.65l-4.63-14.26h9.27z" stroke="#3a414a" fill="#3a414a"/><path d="M1065.54-20.32a6 6 0 0 1 6-6h148a6 6 0 0 1 6 6v8a6 6 0 0 1-6 6h-148a6 6 0 0 1-6-6z" stroke="#000" stroke-width="2"/><path d="M1248.85-77.53v19.35a6 6 0 0 1-6 6h-51.3a6 6 0 0 0-6 6v3.48" stroke="#3a414a" fill="none"/><path d="M1249.33-77.52h-.95v-.5h.95z" stroke="#3a414a" stroke-width=".05" fill="#3a414a"/><path d="M1185.54-27.94l-4.63-14.26h9.27z" stroke="#3a414a" fill="#3a414a"/><path d="M1045.54-77.53v19.35a6 6 0 0 0 6 6h48a6 6 0 0 1 6 6v3.48" stroke="#3a414a" fill="none"/><path d="M1046.02-77.52h-.95v-.5h.95z" stroke="#3a414a" stroke-width=".05" fill="#3a414a"/><path d="M1105.54-27.94l-4.63-14.26h9.27z" stroke="#3a414a" fill="#3a414a"/><path d="M584.9 4.7c28 0 50.7 22.7 50.7 50.7 0 28-22.7 50.7-50.7 50.7H466.3c-28 0-50.7-22.7-50.7-50.7 0-28 22.7-50.7 50.7-50.7z" stroke="#000" stroke-width="2" fill="#fff"/><g><use xlink:href="#O" transform="matrix(1,0,0,1,420.6000544627012,9.691159192749375) translate(13.479392361111104 38.77777777777778)"/><use xlink:href="#l" transform="matrix(1,0,0,1,420.6000544627012,9.691159192749375) translate(87.06880208333334 38.77777777777778)"/><use xlink:href="#P" transform="matrix(1,0,0,1,420.6000544627012,9.691159192749375) translate(126.68468750000001 38.77777777777778)"/><use xlink:href="#Q" transform="matrix(1,0,0,1,420.6000544627012,9.691159192749375) translate(27.69380208333333 71.04340277777777)"/><use xlink:href="#v" transform="matrix(1,0,0,1,420.6000544627012,9.691159192749375) translate(82.95638888888888 71.04340277777777)"/></g><path d="M827.4-251.27h-89.14a6 6 0 0 0-6 6V49.4a6 6 0 0 1-6 6H653" stroke="#3a414a" fill="none"/><path d="M827.9-251.28l.03.5h-.53v-.96h.54z" stroke="#3a414a" stroke-width=".05" fill="#3a414a"/><path d="M638.22 55.4l14.26-4.63v9.27z" stroke="#3a414a" fill="#3a414a"/><path d="M414.1 55.4h-33.5a6 6 0 0 0-6 6v337.87a6 6 0 0 1-6 6h-549.98a6 6 0 0 1-6-6V366.7" stroke="#3a414a" fill="none"/><path d="M414.6 55.4l.02.48h-.53v-.95h.52z" stroke="#3a414a" stroke-width=".05" fill="#3a414a"/><path d="M-187.38 351.94l4.64 14.26H-192z" stroke="#3a414a" fill="#3a414a"/><path d="M1145.54-4.82V141.1a6 6 0 0 1-6 6H531.6a6 6 0 0 1-6-6v-17.6" stroke="#3a414a" fill="none"/><path d="M1146.02-4.8h-.95v-.52h.95z" stroke="#3a414a" stroke-width=".05" fill="#3a414a"/><path d="M525.6 108.73l4.63 14.26h-9.26z" stroke="#3a414a" fill="#3a414a"/><path d="M-186.98-483.8v57.33" stroke="#3a414a" fill="none"/><path d="M-187.03-484.3l.53-.02v.52h-.96v-.56z" stroke="#3a414a" stroke-width=".05" fill="#3a414a"/><path d="M-186.98-411.7l-4.64-14.27h9.28z" stroke="#3a414a" fill="#3a414a"/><defs><path d="M180 0v-1490h510c348 0 508 194 508 460 0 198-88 351-276 417L1256 0h-220L726-579c-117 2-238 0-356 1V0H180zm190-747h312c235 0 327-108 327-283 0-177-92-293-329-293H370v576" id="R"/><path d="M628 24c-324 0-524-230-524-574 0-343 198-582 503-582 237 0 487 146 487 559v75H286c9 234 145 362 343 362 132 0 231-58 273-172l174 48C1024-91 857 24 628 24zM287-650h624c-17-190-120-322-304-322-192 0-309 151-320 322" id="S"/><path d="M158 418v-1536h174v179h20c37-59 106-193 324-193 279 0 474 222 474 576 0 356-194 580-473 580-213 0-288-135-325-197h-14v591H158zm492-555c209 0 317-186 317-421 0-232-105-413-317-413-206 0-314 166-314 413 0 249 111 421 314 421" id="T"/><path d="M613 24c-304 0-509-231-509-576 0-350 205-580 509-580 305 0 511 230 511 580 0 345-206 576-511 576zm0-161c226 0 329-195 329-415 0-222-103-419-329-419-223 0-326 196-326 419 0 220 103 415 326 415" id="U"/><path d="M158 0v-1118h174v172h12c41-113 157-188 290-188 26 0 70 2 91 3v181c-11-2-60-10-108-10-161 0-279 109-279 260V0H158" id="V"/><path d="M598-1118v154H368v674c0 100 37 144 132 144 23 0 62-6 92-12L629-6c-37 13-88 20-134 20-193 0-307-107-307-290v-688H20v-154h168v-266h180v266h230" id="W"/><path d="M158 0v-1118h180V0H158zm91-1301c-68 0-125-53-125-119s57-119 125-119c69 0 126 53 126 119s-57 119-126 119" id="X"/><path d="M338-670V0H158v-1118h173l1 207c72-158 192-221 342-221 226 0 378 139 378 422V0H872v-695c0-172-96-275-252-275-161 0-282 109-282 300" id="Y"/><path d="M611 442c-248 0-391-105-460-228l146-94c47 65 117 165 314 165 178 0 307-82 307-266v-224h-17C863-141 792-18 576-18c-268 0-472-195-472-546 0-346 197-568 476-568 216 0 288 133 326 193h17v-179h175V29c0 289-215 413-487 413zm-5-620c203 0 314-146 314-390 0-237-108-403-314-403-213 0-319 180-319 403 0 230 109 390 319 390" id="Z"/><g id="a"><use transform="matrix(0.010850694444444444,0,0,0.010850694444444444,0,0)" xlink:href="#R"/><use transform="matrix(0.010850694444444444,0,0,0.010850694444444444,13.975694444444445,0)" xlink:href="#S"/><use transform="matrix(0.010850694444444444,0,0,0.010850694444444444,26.931423611111104,0)" xlink:href="#T"/><use transform="matrix(0.010850694444444444,0,0,0.010850694444444444,40.53819444444444,0)" xlink:href="#U"/><use transform="matrix(0.010850694444444444,0,0,0.010850694444444444,53.86284722222222,0)" xlink:href="#V"/><use transform="matrix(0.010850694444444444,0,0,0.010850694444444444,62.57595486111111,0)" xlink:href="#W"/><use transform="matrix(0.010850694444444444,0,0,0.010850694444444444,69.84592013888889,0)" xlink:href="#X"/><use transform="matrix(0.010850694444444444,0,0,0.010850694444444444,75.22786458333333,0)" xlink:href="#Y"/><use transform="matrix(0.010850694444444444,0,0,0.010850694444444444,88.3572048611111,0)" xlink:href="#Z"/></g><path d="M600 0L52-1490h200c166 485 304 806 458 1336 156-533 285-846 449-1336h202L819 0H600" id="aa"/><path d="M538 24C308 24 148-78 108-271l171-41c32 123 123 178 257 178 156 0 256-77 256-169 0-77-54-128-164-154l-186-44c-203-48-300-148-300-305 0-192 176-326 414-326 230 0 351 112 402 269l-163 42c-31-80-94-158-238-158-133 0-233 69-233 162 0 83 57 129 188 160l169 40c203 48 298 149 298 302 0 196-179 339-441 339" id="ab"/><g id="b"><use transform="matrix(0.010850694444444444,0,0,0.010850694444444444,0,0)" xlink:href="#aa"/><use transform="matrix(0.010850694444444444,0,0,0.010850694444444444,15.33203125,0)" xlink:href="#X"/><use transform="matrix(0.010850694444444444,0,0,0.010850694444444444,20.713975694444443,0)" xlink:href="#ab"/><use transform="matrix(0.010850694444444444,0,0,0.010850694444444444,32.443576388888886,0)" xlink:href="#X"/><use transform="matrix(0.010850694444444444,0,0,0.010850694444444444,37.82552083333333,0)" xlink:href="#W"/><use transform="matrix(0.010850694444444444,0,0,0.010850694444444444,44.87847222222222,0)" xlink:href="#U"/><use transform="matrix(0.010850694444444444,0,0,0.010850694444444444,58.203125,0)" xlink:href="#V"/></g><path d="M657 26c-323 0-524-166-541-416h195c15 169 171 246 346 246 202 0 356-106 356-265 5-203-294-238-475-293-239-73-380-191-380-389 0-252 224-419 512-419 294 0 499 171 508 396H992c-17-145-151-228-328-228-193 0-321 102-321 242 0 156 175 211 284 241l149 41c160 44 422 134 422 412 0 244-197 432-541 432" id="ac"/><path d="M481 0L54-1118h197c107 314 236 620 325 951 87-331 217-637 324-951h197L670 0H481" id="ad"/><g id="c"><use transform="matrix(0.010850694444444444,0,0,0.010850694444444444,0,0)" xlink:href="#ac"/><use transform="matrix(0.010850694444444444,0,0,0.010850694444444444,14.2578125,0)" xlink:href="#S"/><use transform="matrix(0.010850694444444444,0,0,0.010850694444444444,27.213541666666664,0)" xlink:href="#V"/><use transform="matrix(0.010850694444444444,0,0,0.010850694444444444,35.92664930555555,0)" xlink:href="#ad"/><use transform="matrix(0.010850694444444444,0,0,0.010850694444444444,47.98177083333333,0)" xlink:href="#S"/><use transform="matrix(0.010850694444444444,0,0,0.010850694444444444,60.937499999999986,0)" xlink:href="#V"/></g><path d="M180 0v-1490h270l367 940c28 72 75 218 110 339 35-117 81-264 110-339l362-940h271V0h-187c2-448-5-837 7-1287-157 497-311 829-483 1287H842C666-458 514-784 354-1284c12 438 5 843 7 1284H180" id="ae"/><path d="M577 24c-279 0-473-224-473-580 0-354 195-576 474-576 218 0 287 134 324 193h14v-551h180V0H922v-173h-20C865-111 790 24 577 24zm27-161c203 0 314-172 314-421 0-247-108-413-314-413-212 0-317 181-317 413 0 235 108 421 317 421" id="af"/><path d="M471 26C259 26 90-98 90-318c0-256 228-303 435-329 202-27 287-16 287-108 0-139-79-219-234-219-161 0-248 86-283 164l-173-57c86-203 278-265 451-265 150 0 419 46 419 395V0H815v-152h-12C765-73 660 26 471 26zm31-159c199 0 310-134 310-271v-155c-30 35-226 55-295 64-131 17-246 59-246 186 0 116 97 176 231 176" id="ag"/><g id="d"><use transform="matrix(0.010850694444444444,0,0,0.010850694444444444,0,0)" xlink:href="#ae"/><use transform="matrix(0.010850694444444444,0,0,0.010850694444444444,20.07378472222222,0)" xlink:href="#U"/><use transform="matrix(0.010850694444444444,0,0,0.010850694444444444,33.3984375,0)" xlink:href="#af"/><use transform="matrix(0.010850694444444444,0,0,0.010850694444444444,47.00520833333333,0)" xlink:href="#S"/><use transform="matrix(0.010850694444444444,0,0,0.010850694444444444,59.960937499999986,0)" xlink:href="#V"/><use transform="matrix(0.010850694444444444,0,0,0.010850694444444444,68.32682291666666,0)" xlink:href="#ag"/><use transform="matrix(0.010850694444444444,0,0,0.010850694444444444,80.80512152777777,0)" xlink:href="#W"/><use transform="matrix(0.010850694444444444,0,0,0.010850694444444444,87.85807291666666,0)" xlink:href="#U"/><use transform="matrix(0.010850694444444444,0,0,0.010850694444444444,101.18272569444441,0)" xlink:href="#V"/></g><path d="M783 20c-382 0-661-292-661-764 0-473 279-766 661-766 302 0 548 182 601 489h-190c-42-204-217-313-411-313-268 0-476 208-476 590 0 381 209 588 476 588 195 0 369-110 411-313h190c-52 303-296 489-601 489" id="ah"/><path d="M338-1490V0H158v-1490h180" id="ai"/><path d="M613 24c-304 0-509-231-509-576 0-350 205-580 509-580 216 0 392 114 453 309l-173 49c-33-115-133-197-280-197-223 0-326 196-326 419 0 220 103 415 326 415 150 0 252-85 285-206l172 49C1010-95 832 24 613 24" id="aj"/><path d="M158 0v-1490h180v865h22l478-493h223L593-638 1096 0H865L456-523 338-412V0H158" id="ak"/><g id="e"><use transform="matrix(0.010850694444444444,0,0,0.010850694444444444,0,0)" xlink:href="#ah"/><use transform="matrix(0.010850694444444444,0,0,0.010850694444444444,16.23263888888889,0)" xlink:href="#ai"/><use transform="matrix(0.010850694444444444,0,0,0.010850694444444444,21.614583333333336,0)" xlink:href="#X"/><use transform="matrix(0.010850694444444444,0,0,0.010850694444444444,26.99652777777778,0)" xlink:href="#aj"/><use transform="matrix(0.010850694444444444,0,0,0.010850694444444444,39.69184027777778,0)" xlink:href="#ak"/></g><g id="f"><use transform="matrix(0.010850694444444444,0,0,0.010850694444444444,0,0)" xlink:href="#R"/><use transform="matrix(0.010850694444444444,0,0,0.010850694444444444,13.975694444444445,0)" xlink:href="#S"/><use transform="matrix(0.010850694444444444,0,0,0.010850694444444444,26.931423611111104,0)" xlink:href="#T"/><use transform="matrix(0.010850694444444444,0,0,0.010850694444444444,40.53819444444444,0)" xlink:href="#U"/><use transform="matrix(0.010850694444444444,0,0,0.010850694444444444,53.86284722222222,0)" xlink:href="#V"/><use transform="matrix(0.010850694444444444,0,0,0.010850694444444444,62.57595486111111,0)" xlink:href="#W"/></g><g id="g"><use transform="matrix(0.010850694444444444,0,0,0.010850694444444444,0,0)" xlink:href="#ac"/><use transform="matrix(0.010850694444444444,0,0,0.010850694444444444,14.2578125,0)" xlink:href="#S"/><use transform="matrix(0.010850694444444444,0,0,0.010850694444444444,27.213541666666664,0)" xlink:href="#ai"/><use transform="matrix(0.010850694444444444,0,0,0.010850694444444444,32.59548611111111,0)" xlink:href="#S"/><use transform="matrix(0.010850694444444444,0,0,0.010850694444444444,45.55121527777778,0)" xlink:href="#aj"/><use transform="matrix(0.010850694444444444,0,0,0.010850694444444444,58.24652777777778,0)" xlink:href="#W"/></g><path d="M692-1560L212 224H46l480-1784h166" id="al"/><path d="M140 405l46-156c120 36 205 19 263-150l32-93L54-1118h197c107 313 237 620 324 950 87-331 219-637 326-950h196L606 167c-68 178-176 259-334 259-64 0-113-12-132-21" id="am"/><g id="h"><use transform="matrix(0.010850694444444444,0,0,0.010850694444444444,0,0)" xlink:href="#R"/><use transform="matrix(0.010850694444444444,0,0,0.010850694444444444,13.975694444444445,0)" xlink:href="#S"/><use transform="matrix(0.010850694444444444,0,0,0.010850694444444444,27.1484375,0)" xlink:href="#ag"/><use transform="matrix(0.010850694444444444,0,0,0.010850694444444444,39.626736111111114,0)" xlink:href="#ab"/><use transform="matrix(0.010850694444444444,0,0,0.010850694444444444,51.35633680555556,0)" xlink:href="#U"/><use transform="matrix(0.010850694444444444,0,0,0.010850694444444444,64.68098958333333,0)" xlink:href="#Y"/><use transform="matrix(0.010850694444444444,0,0,0.010850694444444444,77.8103298611111,0)" xlink:href="#al"/><use transform="matrix(0.010850694444444444,0,0,0.010850694444444444,85.8181423611111,0)" xlink:href="#ah"/><use transform="matrix(0.010850694444444444,0,0,0.010850694444444444,102.05078124999997,0)" xlink:href="#ag"/><use transform="matrix(0.010850694444444444,0,0,0.010850694444444444,114.5290798611111,0)" xlink:href="#W"/><use transform="matrix(0.010850694444444444,0,0,0.010850694444444444,121.58203124999997,0)" xlink:href="#S"/><use transform="matrix(0.010850694444444444,0,0,0.010850694444444444,134.53776041666666,0)" xlink:href="#Z"/><use transform="matrix(0.010850694444444444,0,0,0.010850694444444444,148.16623263888889,0)" xlink:href="#U"/><use transform="matrix(0.010850694444444444,0,0,0.010850694444444444,161.49088541666666,0)" xlink:href="#V"/><use transform="matrix(0.010850694444444444,0,0,0.010850694444444444,170.20399305555554,0)" xlink:href="#am"/></g><path d="M784 20c-382 0-662-292-662-764 0-473 280-766 662-766s660 293 660 766c0 472-278 764-660 764zm0-176c266 0 475-207 475-588 0-383-209-590-475-590-268 0-477 208-477 590 0 380 209 588 477 588" id="an"/><g id="i"><use transform="matrix(0.010850694444444444,0,0,0.010850694444444444,0,0)" xlink:href="#an"/><use transform="matrix(0.010850694444444444,0,0,0.010850694444444444,16.9921875,0)" xlink:href="#T"/><use transform="matrix(0.010850694444444444,0,0,0.010850694444444444,30.598958333333332,0)" xlink:href="#W"/><use transform="matrix(0.010850694444444444,0,0,0.010850694444444444,37.86892361111111,0)" xlink:href="#X"/><use transform="matrix(0.010850694444444444,0,0,0.010850694444444444,43.25086805555555,0)" xlink:href="#U"/><use transform="matrix(0.010850694444444444,0,0,0.010850694444444444,56.57552083333333,0)" xlink:href="#Y"/><use transform="matrix(0.010850694444444444,0,0,0.010850694444444444,69.7048611111111,0)" xlink:href="#ag"/><use transform="matrix(0.010850694444444444,0,0,0.010850694444444444,82.18315972222221,0)" xlink:href="#ai"/></g><path d="M158 0v-1118h175l1 205c55-151 181-225 313-225 147 0 245 90 285 228 53-141 190-228 352-228 194 0 352 125 352 384V0h-181v-749c0-161-105-225-225-225-151 0-243 103-243 244V0H807v-767c0-124-93-207-219-207-131 0-250 92-250 270V0H158" id="ao"/><g id="j"><use transform="matrix(0.010850694444444444,0,0,0.010850694444444444,0,0)" xlink:href="#ah"/><use transform="matrix(0.010850694444444444,0,0,0.010850694444444444,16.23263888888889,0)" xlink:href="#U"/><use transform="matrix(0.010850694444444444,0,0,0.010850694444444444,29.557291666666664,0)" xlink:href="#ao"/><use transform="matrix(0.010850694444444444,0,0,0.010850694444444444,49.0234375,0)" xlink:href="#ao"/><use transform="matrix(0.010850694444444444,0,0,0.010850694444444444,68.48958333333333,0)" xlink:href="#S"/><use transform="matrix(0.010850694444444444,0,0,0.010850694444444444,81.4453125,0)" xlink:href="#Y"/><use transform="matrix(0.010850694444444444,0,0,0.010850694444444444,94.57465277777777,0)" xlink:href="#W"/></g><path d="M537 14c-226 0-379-139-379-422v-710h180v695c0 172 97 275 253 275 160 0 281-109 281-300v-670h181V0H879v-209C806-46 684 14 537 14" id="ap"/><path d="M677 24c-213 0-288-135-325-197h-20V0H158v-1490h180v551h14c37-59 106-193 324-193 279 0 474 222 474 576 0 356-194 580-473 580zm-27-161c209 0 317-186 317-421 0-232-105-413-317-413-206 0-314 166-314 413 0 249 111 421 314 421" id="aq"/><g id="k"><use transform="matrix(0.010850694444444444,0,0,0.010850694444444444,0,0)" xlink:href="#ac"/><use transform="matrix(0.010850694444444444,0,0,0.010850694444444444,14.2578125,0)" xlink:href="#ap"/><use transform="matrix(0.010850694444444444,0,0,0.010850694444444444,27.39800347222222,0)" xlink:href="#aq"/><use transform="matrix(0.010850694444444444,0,0,0.010850694444444444,41.00477430555556,0)" xlink:href="#ao"/><use transform="matrix(0.010850694444444444,0,0,0.010850694444444444,60.470920138888886,0)" xlink:href="#X"/><use transform="matrix(0.010850694444444444,0,0,0.010850694444444444,65.85286458333333,0)" xlink:href="#W"/></g><path d="M338-670V0H158v-1490h180v566c73-149 190-208 336-208 226 0 379 139 379 422V0H872v-695c0-172-96-275-252-275-161 0-282 109-282 300" id="ar"/><g id="l"><use transform="matrix(0.010850694444444444,0,0,0.010850694444444444,0,0)" xlink:href="#W"/><use transform="matrix(0.010850694444444444,0,0,0.010850694444444444,7.269965277777778,0)" xlink:href="#ar"/><use transform="matrix(0.010850694444444444,0,0,0.010850694444444444,20.41015625,0)" xlink:href="#S"/></g><g id="m"><use transform="matrix(0.010850694444444444,0,0,0.010850694444444444,0,0)" xlink:href="#ac"/><use transform="matrix(0.010850694444444444,0,0,0.010850694444444444,14.2578125,0)" xlink:href="#S"/><use transform="matrix(0.010850694444444444,0,0,0.010850694444444444,27.213541666666664,0)" xlink:href="#S"/></g><path d="M678-1118v154H420V0H240v-964H20v-154h220v-149c0-194 155-293 318-293 85 0 141 18 168 30l-50 154c-19-6-47-17-97-17-111 0-159 58-159 166v109h258" id="as"/><g id="n"><use transform="matrix(0.010850694444444444,0,0,0.010850694444444444,0,0)" xlink:href="#ah"/><use transform="matrix(0.010850694444444444,0,0,0.010850694444444444,16.23263888888889,0)" xlink:href="#U"/><use transform="matrix(0.010850694444444444,0,0,0.010850694444444444,29.557291666666664,0)" xlink:href="#Y"/><use transform="matrix(0.010850694444444444,0,0,0.010850694444444444,42.68663194444444,0)" xlink:href="#as"/><use transform="matrix(0.010850694444444444,0,0,0.010850694444444444,50.91145833333333,0)" xlink:href="#X"/><use transform="matrix(0.010850694444444444,0,0,0.010850694444444444,56.29340277777778,0)" xlink:href="#V"/><use transform="matrix(0.010850694444444444,0,0,0.010850694444444444,65.00651041666666,0)" xlink:href="#ao"/><use transform="matrix(0.010850694444444444,0,0,0.010850694444444444,84.47265624999999,0)" xlink:href="#ag"/><use transform="matrix(0.010850694444444444,0,0,0.010850694444444444,96.95095486111111,0)" xlink:href="#W"/><use transform="matrix(0.010850694444444444,0,0,0.010850694444444444,104.22092013888887,0)" xlink:href="#X"/><use transform="matrix(0.010850694444444444,0,0,0.010850694444444444,109.60286458333331,0)" xlink:href="#U"/><use transform="matrix(0.010850694444444444,0,0,0.010850694444444444,122.92751736111109,0)" xlink:href="#Y"/></g><path d="M763 24c-353 0-583-224-583-531v-983h190v968c0 214 149 370 393 370 243 0 391-156 391-370v-968h190v983c0 307-230 531-581 531" id="at"/><g id="o"><use transform="matrix(0.010850694444444444,0,0,0.010850694444444444,0,0)" xlink:href="#at"/><use transform="matrix(0.010850694444444444,0,0,0.010850694444444444,16.536458333333332,0)" xlink:href="#ab"/><use transform="matrix(0.010850694444444444,0,0,0.010850694444444444,28.266059027777775,0)" xlink:href="#S"/><use transform="matrix(0.010850694444444444,0,0,0.010850694444444444,41.22178819444444,0)" xlink:href="#V"/></g><path d="M180 0v-1490h190v1322h690V0H180" id="au"/><g id="p"><use transform="matrix(0.010850694444444444,0,0,0.010850694444444444,0,0)" xlink:href="#au"/><use transform="matrix(0.010850694444444444,0,0,0.010850694444444444,12.565104166666666,0)" xlink:href="#U"/><use transform="matrix(0.010850694444444444,0,0,0.010850694444444444,25.889756944444443,0)" xlink:href="#Z"/><use transform="matrix(0.010850694444444444,0,0,0.010850694444444444,39.518229166666664,0)" xlink:href="#Z"/><use transform="matrix(0.010850694444444444,0,0,0.010850694444444444,53.146701388888886,0)" xlink:href="#S"/><use transform="matrix(0.010850694444444444,0,0,0.010850694444444444,66.10243055555556,0)" xlink:href="#af"/></g><path d="M383-449c-3-277 82-343 222-425 88-53 156-134 156-250 0-139-108-227-243-227-118 0-235 70-246 236H82c10-251 200-395 436-395 259 0 427 165 427 393 0 161-74 273-203 352-132 80-180 132-178 316H383zm93 462c-75 0-135-60-135-134 0-75 60-135 135-135 74 0 134 60 134 135 0 74-60 134-134 134" id="av"/><g id="q"><use transform="matrix(0.010850694444444444,0,0,0.010850694444444444,0,0)" xlink:href="#X"/><use transform="matrix(0.010850694444444444,0,0,0.010850694444444444,5.381944444444445,0)" xlink:href="#Y"/><use transform="matrix(0.010850694444444444,0,0,0.010850694444444444,18.51128472222222,0)" xlink:href="#av"/></g><path fill="#333" d="M601 0v-560L49-1490h357l252 464c38 68 67 130 97 208 96-243 225-446 337-672h356L905-560V0H601" id="aw"/><path fill="#333" d="M633 22C291 22 81-200 81-553c0-345 210-579 537-579 292 0 525 185 525 567v84H378c7 183 109 277 260 277 105 0 184-46 216-132l272 51C1071-99 893 22 633 22zM380-669h474c-15-146-94-237-233-237-143 0-229 99-241 237" id="ax"/><path fill="#333" d="M572 22C302 22 117-98 78-306l279-48c29 105 101 156 224 156 114 0 185-48 185-115 0-118-228-130-337-155-215-49-322-150-322-317 0-215 187-347 470-347 265 0 424 116 466 298l-266 47c-24-76-87-130-196-130-98 0-174 46-174 113 0 56 38 95 144 117l201 40c216 44 320 143 320 302 0 220-207 367-500 367" id="ay"/><g id="r"><use transform="matrix(0.008680555555555556,0,0,0.008680555555555556,0,0)" xlink:href="#aw"/><use transform="matrix(0.008680555555555556,0,0,0.008680555555555556,11.050347222222223,0)" xlink:href="#ax"/><use transform="matrix(0.008680555555555556,0,0,0.008680555555555556,21.640625,0)" xlink:href="#ay"/></g><g id="s"><use transform="matrix(0.010850694444444444,0,0,0.010850694444444444,0,0)" xlink:href="#ac"/><use transform="matrix(0.010850694444444444,0,0,0.010850694444444444,14.2578125,0)" xlink:href="#W"/><use transform="matrix(0.010850694444444444,0,0,0.010850694444444444,21.31076388888889,0)" xlink:href="#U"/><use transform="matrix(0.010850694444444444,0,0,0.010850694444444444,34.635416666666664,0)" xlink:href="#V"/><use transform="matrix(0.010850694444444444,0,0,0.010850694444444444,42.632378472222214,0)" xlink:href="#S"/></g><g id="t"><use transform="matrix(0.010850694444444444,0,0,0.010850694444444444,0,0)" xlink:href="#R"/><use transform="matrix(0.010850694444444444,0,0,0.010850694444444444,13.975694444444445,0)" xlink:href="#S"/><use transform="matrix(0.010850694444444444,0,0,0.010850694444444444,26.931423611111104,0)" xlink:href="#T"/><use transform="matrix(0.010850694444444444,0,0,0.010850694444444444,40.53819444444444,0)" xlink:href="#U"/><use transform="matrix(0.010850694444444444,0,0,0.010850694444444444,53.86284722222222,0)" xlink:href="#V"/><use transform="matrix(0.010850694444444444,0,0,0.010850694444444444,62.57595486111111,0)" xlink:href="#W"/></g><g id="u"><use transform="matrix(0.010850694444444444,0,0,0.010850694444444444,0,0)" xlink:href="#X"/><use transform="matrix(0.010850694444444444,0,0,0.010850694444444444,5.381944444444445,0)" xlink:href="#Y"/></g><path d="M645 0H180v-1490h484c435 0 692 280 692 742 0 466-257 748-711 748zM370-168h263c363 0 539-218 539-580 0-358-176-574-521-574H370v1154" id="az"/><g id="v"><use transform="matrix(0.010850694444444444,0,0,0.010850694444444444,0,0)" xlink:href="#az"/><use transform="matrix(0.010850694444444444,0,0,0.010850694444444444,16.03732638888889,0)" xlink:href="#ag"/><use transform="matrix(0.010850694444444444,0,0,0.010850694444444444,28.515625,0)" xlink:href="#W"/><use transform="matrix(0.010850694444444444,0,0,0.010850694444444444,35.89409722222222,0)" xlink:href="#ag"/><use transform="matrix(0.010850694444444444,0,0,0.010850694444444444,48.37239583333333,0)" xlink:href="#aq"/><use transform="matrix(0.010850694444444444,0,0,0.010850694444444444,62.19618055555554,0)" xlink:href="#ag"/><use transform="matrix(0.010850694444444444,0,0,0.010850694444444444,74.67447916666666,0)" xlink:href="#ab"/><use transform="matrix(0.010850694444444444,0,0,0.010850694444444444,86.4040798611111,0)" xlink:href="#S"/></g><path fill="#333" d="M135 0v-1490h340l471 754c59 97 122 210 187 365-32-387-14-721-19-1119h312V0h-341C855-382 627-689 427-1113c32 420 16 695 20 1113H135" id="aA"/><path fill="#333" d="M628 22C291 22 81-210 81-554c0-346 210-578 547-578 336 0 547 232 547 578 0 344-211 576-547 576zm0-236c160 0 242-146 242-341 0-197-82-341-242-341S387-753 387-555c0 195 81 341 241 341" id="aB"/><g id="w"><use transform="matrix(0.008680555555555556,0,0,0.008680555555555556,0,0)" xlink:href="#aA"/><use transform="matrix(0.008680555555555556,0,0,0.008680555555555556,13.550347222222223,0)" xlink:href="#aB"/></g><g id="x"><use transform="matrix(0.010850694444444444,0,0,0.010850694444444444,0,0)" xlink:href="#az"/><use transform="matrix(0.010850694444444444,0,0,0.010850694444444444,16.03732638888889,0)" xlink:href="#X"/><use transform="matrix(0.010850694444444444,0,0,0.010850694444444444,21.419270833333336,0)" xlink:href="#ab"/><use transform="matrix(0.010850694444444444,0,0,0.010850694444444444,33.14887152777778,0)" xlink:href="#T"/><use transform="matrix(0.010850694444444444,0,0,0.010850694444444444,46.75564236111111,0)" xlink:href="#ai"/><use transform="matrix(0.010850694444444444,0,0,0.010850694444444444,52.13758680555556,0)" xlink:href="#ag"/><use transform="matrix(0.010850694444444444,0,0,0.010850694444444444,64.29036458333333,0)" xlink:href="#am"/></g><g id="y"><use transform="matrix(0.010850694444444444,0,0,0.010850694444444444,0,0)" xlink:href="#au"/><use transform="matrix(0.010850694444444444,0,0,0.010850694444444444,12.565104166666666,0)" xlink:href="#U"/><use transform="matrix(0.010850694444444444,0,0,0.010850694444444444,25.889756944444443,0)" xlink:href="#Z"/><use transform="matrix(0.010850694444444444,0,0,0.010850694444444444,39.518229166666664,0)" xlink:href="#X"/><use transform="matrix(0.010850694444444444,0,0,0.010850694444444444,44.90017361111111,0)" xlink:href="#Y"/></g><path d="M1096 418H916v-591h-14C865-111 790 24 577 24c-279 0-473-224-473-580 0-354 195-576 474-576 218 0 287 134 324 193h20v-179h174V418zM604-137c203 0 314-172 314-421 0-247-108-413-314-413-212 0-317 181-317 413 0 235 108 421 317 421" id="aC"/><g id="z"><use transform="matrix(0.010850694444444444,0,0,0.010850694444444444,0,0)" xlink:href="#R"/><use transform="matrix(0.010850694444444444,0,0,0.010850694444444444,13.975694444444445,0)" xlink:href="#S"/><use transform="matrix(0.010850694444444444,0,0,0.010850694444444444,26.931423611111104,0)" xlink:href="#aC"/><use transform="matrix(0.010850694444444444,0,0,0.010850694444444444,40.53819444444444,0)" xlink:href="#ap"/><use transform="matrix(0.010850694444444444,0,0,0.010850694444444444,53.678385416666664,0)" xlink:href="#X"/><use transform="matrix(0.010850694444444444,0,0,0.010850694444444444,59.06032986111111,0)" xlink:href="#V"/><use transform="matrix(0.010850694444444444,0,0,0.010850694444444444,67.05729166666666,0)" xlink:href="#S"/><use transform="matrix(0.010850694444444444,0,0,0.010850694444444444,80.01302083333333,0)" xlink:href="#af"/></g><path d="M180 0v-1490h224l606 953c40 63 108 177 176 312-27-437-7-821-13-1265h190V0h-226C860-448 622-778 356-1262c27 476 11 792 15 1262H180" id="aD"/><g id="A"><use transform="matrix(0.010850694444444444,0,0,0.010850694444444444,0,0)" xlink:href="#aD"/><use transform="matrix(0.010850694444444444,0,0,0.010850694444444444,16.74262152777778,0)" xlink:href="#U"/><use transform="matrix(0.010850694444444444,0,0,0.010850694444444444,30.06727430555556,0)" xlink:href="#W"/><use transform="matrix(0.010850694444444444,0,0,0.010850694444444444,37.337239583333336,0)" xlink:href="#X"/><use transform="matrix(0.010850694444444444,0,0,0.010850694444444444,42.71918402777778,0)" xlink:href="#as"/><use transform="matrix(0.010850694444444444,0,0,0.010850694444444444,50.94401041666667,0)" xlink:href="#am"/></g><g id="B"><use transform="matrix(0.010850694444444444,0,0,0.010850694444444444,0,0)" xlink:href="#ae"/><use transform="matrix(0.010850694444444444,0,0,0.010850694444444444,20.07378472222222,0)" xlink:href="#U"/><use transform="matrix(0.010850694444444444,0,0,0.010850694444444444,33.3984375,0)" xlink:href="#af"/><use transform="matrix(0.010850694444444444,0,0,0.010850694444444444,47.00520833333333,0)" xlink:href="#S"/><use transform="matrix(0.010850694444444444,0,0,0.010850694444444444,59.960937499999986,0)" xlink:href="#V"/><use transform="matrix(0.010850694444444444,0,0,0.010850694444444444,68.32682291666666,0)" xlink:href="#ag"/><use transform="matrix(0.010850694444444444,0,0,0.010850694444444444,80.80512152777777,0)" xlink:href="#W"/><use transform="matrix(0.010850694444444444,0,0,0.010850694444444444,87.85807291666666,0)" xlink:href="#U"/><use transform="matrix(0.010850694444444444,0,0,0.010850694444444444,101.18272569444441,0)" xlink:href="#V"/></g><path d="M409 0L70-1118h191c89 329 165 560 243 925 75-353 154-601 240-925h192c85 325 161 564 235 922 77-354 157-598 244-922h191L1267 0h-179c-86-307-176-590-250-913C763-588 675-308 588 0H409" id="aE"/><g id="C"><use transform="matrix(0.010850694444444444,0,0,0.010850694444444444,0,0)" xlink:href="#R"/><use transform="matrix(0.010850694444444444,0,0,0.010850694444444444,13.975694444444445,0)" xlink:href="#S"/><use transform="matrix(0.010850694444444444,0,0,0.010850694444444444,26.49739583333333,0)" xlink:href="#ad"/><use transform="matrix(0.010850694444444444,0,0,0.010850694444444444,38.986545138888886,0)" xlink:href="#X"/><use transform="matrix(0.010850694444444444,0,0,0.010850694444444444,44.36848958333333,0)" xlink:href="#S"/><use transform="matrix(0.010850694444444444,0,0,0.010850694444444444,56.92274305555555,0)" xlink:href="#aE"/></g><path d="M180 0v-1490h510c348 0 508 209 508 474 0 266-160 477-507 477H370V0H180zm190-706h312c236 0 327-133 327-310 0-176-91-307-329-307H370v617" id="aF"/><g id="D"><use transform="matrix(0.010850694444444444,0,0,0.010850694444444444,0,0)" xlink:href="#aF"/><use transform="matrix(0.010850694444444444,0,0,0.010850694444444444,14.073350694444445,0)" xlink:href="#U"/><use transform="matrix(0.010850694444444444,0,0,0.010850694444444444,27.39800347222222,0)" xlink:href="#ab"/><use transform="matrix(0.010850694444444444,0,0,0.010850694444444444,39.127604166666664,0)" xlink:href="#W"/></g><g id="E"><use transform="matrix(0.010850694444444444,0,0,0.010850694444444444,0,0)" xlink:href="#ac"/><use transform="matrix(0.010850694444444444,0,0,0.010850694444444444,14.2578125,0)" xlink:href="#ar"/><use transform="matrix(0.010850694444444444,0,0,0.010850694444444444,27.39800347222222,0)" xlink:href="#U"/><use transform="matrix(0.010850694444444444,0,0,0.010850694444444444,40.32118055555556,0)" xlink:href="#aE"/></g><g id="F"><use transform="matrix(0.010850694444444444,0,0,0.010850694444444444,0,0)" xlink:href="#at"/><use transform="matrix(0.010850694444444444,0,0,0.010850694444444444,16.536458333333332,0)" xlink:href="#ab"/><use transform="matrix(0.010850694444444444,0,0,0.010850694444444444,28.266059027777775,0)" xlink:href="#S"/><use transform="matrix(0.010850694444444444,0,0,0.010850694444444444,41.22178819444444,0)" xlink:href="#V"/></g><g id="G"><use transform="matrix(0.010850694444444444,0,0,0.010850694444444444,0,0)" xlink:href="#ac"/><use transform="matrix(0.010850694444444444,0,0,0.010850694444444444,14.2578125,0)" xlink:href="#ap"/><use transform="matrix(0.010850694444444444,0,0,0.010850694444444444,27.39800347222222,0)" xlink:href="#aq"/><use transform="matrix(0.010850694444444444,0,0,0.010850694444444444,41.00477430555556,0)" xlink:href="#ao"/><use transform="matrix(0.010850694444444444,0,0,0.010850694444444444,60.470920138888886,0)" xlink:href="#X"/><use transform="matrix(0.010850694444444444,0,0,0.010850694444444444,65.85286458333333,0)" xlink:href="#W"/><use transform="matrix(0.010850694444444444,0,0,0.010850694444444444,72.58029513888887,0)" xlink:href="#W"/><use transform="matrix(0.010850694444444444,0,0,0.010850694444444444,79.63324652777776,0)" xlink:href="#S"/><use transform="matrix(0.010850694444444444,0,0,0.010850694444444444,92.58897569444441,0)" xlink:href="#af"/></g><g id="H"><use transform="matrix(0.010850694444444444,0,0,0.010850694444444444,0,0)" xlink:href="#R"/><use transform="matrix(0.010850694444444444,0,0,0.010850694444444444,13.975694444444445,0)" xlink:href="#S"/><use transform="matrix(0.010850694444444444,0,0,0.010850694444444444,26.931423611111104,0)" xlink:href="#T"/><use transform="matrix(0.010850694444444444,0,0,0.010850694444444444,40.53819444444444,0)" xlink:href="#U"/><use transform="matrix(0.010850694444444444,0,0,0.010850694444444444,53.86284722222222,0)" xlink:href="#V"/><use transform="matrix(0.010850694444444444,0,0,0.010850694444444444,62.57595486111111,0)" xlink:href="#W"/></g><g id="I"><use transform="matrix(0.010850694444444444,0,0,0.010850694444444444,0,0)" xlink:href="#aa"/><use transform="matrix(0.010850694444444444,0,0,0.010850694444444444,14.20355902777778,0)" xlink:href="#ag"/><use transform="matrix(0.010850694444444444,0,0,0.010850694444444444,26.68185763888889,0)" xlink:href="#ai"/><use transform="matrix(0.010850694444444444,0,0,0.010850694444444444,32.063802083333336,0)" xlink:href="#X"/><use transform="matrix(0.010850694444444444,0,0,0.010850694444444444,37.44574652777778,0)" xlink:href="#af"/><use transform="matrix(0.010850694444444444,0,0,0.010850694444444444,51.05251736111112,0)" xlink:href="#av"/></g><path d="M157-1118h181V80c1 225-123 350-364 338V252c126 9 184-48 183-172v-1198zm91-183c-68 0-125-53-125-119s57-119 125-119c69 0 126 53 126 119s-57 119-126 119" id="aG"/><g id="J"><use transform="matrix(0.010850694444444444,0,0,0.010850694444444444,0,0)" xlink:href="#R"/><use transform="matrix(0.010850694444444444,0,0,0.010850694444444444,13.975694444444445,0)" xlink:href="#S"/><use transform="matrix(0.010850694444444444,0,0,0.010850694444444444,26.931423611111104,0)" xlink:href="#aG"/><use transform="matrix(0.010850694444444444,0,0,0.010850694444444444,32.31336805555555,0)" xlink:href="#S"/><use transform="matrix(0.010850694444444444,0,0,0.010850694444444444,45.26909722222221,0)" xlink:href="#aj"/><use transform="matrix(0.010850694444444444,0,0,0.010850694444444444,57.96440972222221,0)" xlink:href="#W"/></g><g id="K"><use transform="matrix(0.010850694444444444,0,0,0.010850694444444444,0,0)" xlink:href="#W"/><use transform="matrix(0.010850694444444444,0,0,0.010850694444444444,7.269965277777778,0)" xlink:href="#ar"/><use transform="matrix(0.010850694444444444,0,0,0.010850694444444444,20.41015625,0)" xlink:href="#S"/></g><g id="L"><use transform="matrix(0.010850694444444444,0,0,0.010850694444444444,0,0)" xlink:href="#R"/><use transform="matrix(0.010850694444444444,0,0,0.010850694444444444,13.975694444444445,0)" xlink:href="#S"/><use transform="matrix(0.010850694444444444,0,0,0.010850694444444444,26.931423611111104,0)" xlink:href="#ao"/><use transform="matrix(0.010850694444444444,0,0,0.010850694444444444,46.39756944444444,0)" xlink:href="#U"/><use transform="matrix(0.010850694444444444,0,0,0.010850694444444444,59.28819444444444,0)" xlink:href="#ad"/><use transform="matrix(0.010850694444444444,0,0,0.010850694444444444,71.34331597222221,0)" xlink:href="#S"/></g><path d="M458 0L52-1490h194c108 439 233 855 324 1313 92-459 221-873 331-1313h216c110 438 234 854 330 1307 92-455 216-869 323-1307h196L1558 0h-221l-256-944c-26-95-50-200-73-331-22 122-44 223-73 331L680 0H458" id="aH"/><g id="M"><use transform="matrix(0.010850694444444444,0,0,0.010850694444444444,0,0)" xlink:href="#aH"/><use transform="matrix(0.010850694444444444,0,0,0.010850694444444444,20.768229166666668,0)" xlink:href="#ag"/><use transform="matrix(0.010850694444444444,0,0,0.010850694444444444,33.24652777777778,0)" xlink:href="#V"/><use transform="matrix(0.010850694444444444,0,0,0.010850694444444444,41.959635416666664,0)" xlink:href="#Y"/></g><g id="N"><use transform="matrix(0.010850694444444444,0,0,0.010850694444444444,0,0)" xlink:href="#at"/><use transform="matrix(0.010850694444444444,0,0,0.010850694444444444,16.536458333333332,0)" xlink:href="#ab"/><use transform="matrix(0.010850694444444444,0,0,0.010850694444444444,28.266059027777775,0)" xlink:href="#S"/><use transform="matrix(0.010850694444444444,0,0,0.010850694444444444,41.22178819444444,0)" xlink:href="#V"/></g><g id="O"><use transform="matrix(0.010850694444444444,0,0,0.010850694444444444,0,0)" xlink:href="#az"/><use transform="matrix(0.010850694444444444,0,0,0.010850694444444444,16.03732638888889,0)" xlink:href="#S"/><use transform="matrix(0.010850694444444444,0,0,0.010850694444444444,28.99305555555556,0)" xlink:href="#ai"/><use transform="matrix(0.010850694444444444,0,0,0.010850694444444444,34.375,0)" xlink:href="#S"/><use transform="matrix(0.010850694444444444,0,0,0.010850694444444444,47.330729166666664,0)" xlink:href="#W"/><use transform="matrix(0.010850694444444444,0,0,0.010850694444444444,54.38368055555556,0)" xlink:href="#S"/></g><g id="P"><use transform="matrix(0.010850694444444444,0,0,0.010850694444444444,0,0)" xlink:href="#R"/><use transform="matrix(0.010850694444444444,0,0,0.010850694444444444,13.975694444444445,0)" xlink:href="#S"/><use transform="matrix(0.010850694444444444,0,0,0.010850694444444444,26.931423611111104,0)" xlink:href="#T"/><use transform="matrix(0.010850694444444444,0,0,0.010850694444444444,40.53819444444444,0)" xlink:href="#U"/><use transform="matrix(0.010850694444444444,0,0,0.010850694444444444,53.86284722222222,0)" xlink:href="#V"/><use transform="matrix(0.010850694444444444,0,0,0.010850694444444444,62.57595486111111,0)" xlink:href="#W"/></g><g id="Q"><use transform="matrix(0.010850694444444444,0,0,0.010850694444444444,0,0)" xlink:href="#as"/><use transform="matrix(0.010850694444444444,0,0,0.010850694444444444,8.22482638888889,0)" xlink:href="#V"/><use transform="matrix(0.010850694444444444,0,0,0.010850694444444444,16.221788194444443,0)" xlink:href="#U"/><use transform="matrix(0.010850694444444444,0,0,0.010850694444444444,29.54644097222222,0)" xlink:href="#ao"/></g></defs></g></svg>